<svg width="201" height="208" viewBox="0 0 201 208" fill="none" xmlns="http://www.w3.org/2000/svg">
<path d="M200.868 92.7085C200.868 134.579 166.933 168.515 125.062 168.515C83.1912 168.515 49.2557 134.579 49.2557 92.7085C49.2557 50.8376 83.1912 16.9022 125.062 16.9022C166.933 16.9022 200.868 50.8376 200.868 92.7085Z" fill="#353133"/>
<path d="M36.3519 116.902V133.031H23.4487C20.3519 133.031 16.3841 135.386 15.1261 138.225L4.70676 161.709C2.96483 165.644 4.70679 170.225 8.61 171.999L44.5777 188.354L65.3841 136.354C66.5776 133.386 69.4163 129.805 75.0615 129.805H81.5131V116.902H36.3519Z" fill="white"/>
<path d="M55.707 45.9355H87.965C95.0941 45.9355 100.868 51.7097 100.868 58.8387V71.7419H104.094C107.642 71.7419 110.546 74.6129 110.546 78.1935V94.3225C110.546 97.8709 107.642 100.774 104.094 100.774H100.868V116.903H55.707H13.7716V100.774H10.5458C6.99746 100.774 4.09424 97.8709 4.09424 94.3225V78.1935C4.09424 74.6129 6.99746 71.7419 10.5458 71.7419H13.7716V58.8387C13.7716 51.7097 19.5458 45.9355 26.6748 45.9355H55.707Z" fill="white"/>
<path d="M55.707 45.9355H87.965C95.0941 45.9355 100.868 51.7097 100.868 58.8387V71.7419H104.094C107.642 71.7419 110.546 74.6129 110.546 78.1935V94.3225C110.546 97.8709 107.642 100.774 104.094 100.774H100.868V116.903H55.707H13.7716V100.774H10.5458C6.99746 100.774 4.09424 97.8709 4.09424 94.3225V78.1935C4.09424 74.6129 6.99746 71.7419 10.5458 71.7419H13.7716V58.8387C13.7716 51.7097 19.5458 45.9355 26.6748 45.9355H55.707Z" stroke="black" stroke-width="6.4516" stroke-miterlimit="10" stroke-linecap="round" stroke-linejoin="round"/>
<path d="M175.062 129.806H75.062C69.4168 129.806 66.5781 133.387 65.3845 136.355L44.5781 188.355L15.1266 174.968L9.35242 188.355L42.7717 204H149.223C152.384 204 154.255 202.097 155.481 199.226L180.191 140.548C182.384 135.355 180.642 129.806 175.062 129.806Z" fill="#EF2E2D"/>
<path d="M49.256 83.0321C49.256 89.2579 44.1915 94.3224 37.9657 94.3224C31.7399 94.3224 26.6754 89.2579 26.6754 83.0321C26.6754 76.8063 31.7399 71.7418 37.9657 71.7418C44.1915 71.7418 49.256 76.8063 49.256 83.0321Z" fill="#EF2E2D"/>
<path d="M49.256 83.0321C49.256 89.2579 44.1915 94.3224 37.9657 94.3224C31.7399 94.3224 26.6754 89.2579 26.6754 83.0321C26.6754 76.8063 31.7399 71.7418 37.9657 71.7418C44.1915 71.7418 49.256 76.8063 49.256 83.0321Z" stroke="black" stroke-width="6.4516" stroke-miterlimit="10" stroke-linecap="round" stroke-linejoin="round"/>
<path d="M87.9655 83.0321C87.9655 89.2579 82.901 94.3224 76.6752 94.3224C70.4494 94.3224 65.3849 89.2579 65.3849 83.0321C65.3849 76.8063 70.4494 71.7418 76.6752 71.7418C82.901 71.7418 87.9655 76.8063 87.9655 83.0321Z" fill="#EF2E2D"/>
<path d="M58.9334 45.9358V23.3552M87.9656 83.0325C87.9656 89.2583 82.9011 94.3228 76.6753 94.3228C70.4496 94.3228 65.385 89.2583 65.385 83.0325C65.385 76.8067 70.4496 71.7422 76.6753 71.7422C82.9011 71.7422 87.9656 76.8067 87.9656 83.0325ZM9.38516 188.355L42.8045 204H149.256C152.417 204 154.288 202.097 155.482 199.226L180.191 140.549C182.353 135.387 180.643 129.839 175.03 129.839H75.0302C69.3851 129.839 66.5464 133.42 65.3528 136.387L44.5464 188.387L8.57871 172.032C4.67549 170.258 2.93359 165.645 4.67552 161.742L15.0948 138.258C16.3529 135.42 20.3206 133.065 23.4174 133.065H36.3206V116.936L9.38516 188.355ZM107.32 165.29H123.449H107.32Z" stroke="black" stroke-width="6.4516" stroke-miterlimit="10" stroke-linecap="round" stroke-linejoin="round"/>
<path d="M68.5143 13.6774C68.5143 19.0322 64.1917 23.3548 58.8692 23.3548C53.5466 23.3548 49.224 19.0322 49.224 13.6774C49.224 8.32257 53.5466 4 58.8692 4C64.1917 4 68.5143 8.32257 68.5143 13.6774Z" fill="#EF2E2D"/>
<path d="M68.5143 13.6774C68.5143 19.0322 64.1917 23.3548 58.8692 23.3548C53.5466 23.3548 49.224 19.0322 49.224 13.6774C49.224 8.32257 53.5466 4 58.8692 4C64.1917 4 68.5143 8.32257 68.5143 13.6774Z" stroke="black" stroke-width="6.4516" stroke-miterlimit="10" stroke-linecap="round" stroke-linejoin="round"/>
<path d="M152.481 62.0645L158.933 68.5161M139.578 94.3225V100.774V94.3225ZM139.578 107.226V113.677V107.226ZM136.352 104H129.9H136.352ZM149.255 104H142.804H149.255ZM158.933 78.1935L152.481 84.6451L158.933 78.1935ZM175.062 62.0645L168.61 68.5161L175.062 62.0645ZM168.61 78.1935L175.062 84.6451L168.61 78.1935Z" stroke="#BCC0C4" stroke-width="6.4516" stroke-miterlimit="10"/>
</svg>
