<svg width="508" height="513" viewBox="0 0 508 513" fill="none" xmlns="http://www.w3.org/2000/svg">
<path d="M156.459 20.4785C155.491 24.403 151.894 32.2521 145.253 32.2521C136.951 32.2521 126.159 42.7309 128.65 43.5692C131.14 44.4075 125.329 51.114 128.65 50.6949C131.97 50.2757 142.763 36.8628 140.687 42.3117C138.611 47.7608 120.764 69.1377 126.159 63.6887C131.555 58.2396 156.044 44.8267 153.554 43.5692C151.063 42.3117 161.026 30.9946 164.761 30.9946C168.497 30.9946 170.157 41.0543 166.006 42.3117C161.856 43.5692 176.383 41.0543 176.383 42.3117C176.383 43.5692 175.552 61.1738 178.873 61.1738C182.194 61.1738 154.384 75.8442 151.894 70.8143C149.404 65.7844 138.611 84.6465 145.253 83.3889C151.894 82.1312 156.459 78.7782 156.459 81.712C156.459 84.6465 135.706 92.6106 134.876 91.7722C134.212 91.101 136.813 87.8599 138.196 86.3233C134.323 86.882 125.994 88.9218 123.669 92.6106C120.764 97.2211 104.576 108.119 101.255 108.119C97.935 108.119 92.1241 125.723 82.5771 125.723C73.0306 125.723 64.3141 163.029 60.1634 162.609C56.0128 162.19 63.899 147.939 63.484 142.909C63.0689 137.879 58.5032 143.748 58.5032 140.394C58.5032 137.041 51.862 141.651 49.3716 140.394C47.3793 139.388 46.6045 136.622 46.4661 135.364C40.6552 142.629 28.9502 158.417 28.6181 163.448C28.2031 169.735 20.7319 186.92 24.8825 186.082C29.0332 185.243 30.2784 186.082 31.1086 184.405C31.9387 182.729 34.8442 174.346 37.3346 174.346C39.825 174.346 42.3154 173.507 39.825 179.795C37.3346 186.082 29.0332 199.076 31.9387 199.914C34.8442 200.752 40.6552 201.172 40.6552 207.04C40.6552 212.908 35.2593 223.386 36.5045 227.159C37.7497 230.931 40.2401 237.219 42.3154 236.38C44.3908 235.542 46.0511 233.027 48.9566 235.123C51.862 237.219 51.447 242.248 53.5223 239.734C55.5976 237.219 55.1826 230.093 58.9182 229.674C62.6538 229.255 65.9744 223.386 69.295 224.225C72.6156 225.063 64.7292 230.931 67.6346 231.351C70.5402 231.77 72.6155 225.902 74.2758 226.321C75.936 226.74 73.8608 230.931 76.7662 230.931C79.6717 230.931 76.3512 235.123 79.2566 235.123C82.162 235.123 93.7838 225.483 101.255 235.123C108.727 244.764 109.972 261.949 119.518 261.949C129.065 261.949 141.517 267.398 144.422 272.847C147.328 278.296 148.573 282.907 152.724 285.421C156.874 287.936 152.724 295.062 156.874 297.158C161.026 299.253 165.176 300.93 173.893 306.379C182.609 311.828 182.194 308.894 188.004 309.314C193.816 309.733 197.551 310.152 201.702 315.601C205.853 321.05 210.004 323.565 213.739 321.888C217.475 320.211 221.21 336.14 214.154 343.265C207.098 350.39 197.967 354.582 198.797 360.87C199.627 367.157 202.117 381.827 195.061 389.791C188.004 397.755 180.949 398.594 170.572 402.785C160.195 406.976 169.326 412.007 164.761 418.294C160.195 424.581 153.969 430.03 148.158 432.544C142.347 435.06 149.404 446.377 147.328 447.634C145.253 448.892 136.951 443.443 136.121 445.538C135.291 447.634 140.272 456.437 136.121 457.275C131.97 458.113 132.8 451.407 131.14 453.083C129.48 454.76 121.179 468.592 108.311 445.538C95.4443 422.485 82.9922 398.174 82.5771 375.959C82.162 353.744 59.3333 362.126 55.1826 339.073C51.0319 316.02 32.3538 300.93 40.6552 293.385C38.9949 286.539 37.2516 272.679 43.5606 272.009C51.447 271.17 45.636 259.853 47.2963 253.565C48.9566 247.278 48.9566 237.219 45.2209 239.734C41.4853 242.248 39.41 246.44 39.41 243.087C39.41 239.734 31.5236 230.931 31.5236 227.159C31.5236 223.386 34.0141 210.393 29.4483 210.812C24.8825 211.231 24.4675 199.914 24.0524 194.884C23.6373 189.854 19.0715 202.848 17.4113 193.627C15.751 184.405 15.751 170.992 20.3167 163.448C23.9693 157.412 29.8489 140.533 32.332 132.849M156.459 20.4785L32.332 132.849M156.459 20.4785C103.616 42.7752 59.8538 82.6418 32.332 132.849M156.459 20.4785C162.967 17.7326 169.613 15.2532 176.383 13.0537M156.459 20.4785L176.383 13.0537M32.332 132.849C12.2443 169.495 0.808502 211.649 0.808502 256.5C0.808502 393.212 107.058 504.863 240.719 511.838M32.332 132.849L240.719 511.838M176.383 13.0537C200.843 5.10715 226.925 0.81543 254.001 0.81543C262.529 0.81543 270.959 1.24122 279.27 2.07289M176.383 13.0537L279.27 2.07289M176.383 13.0537C174.723 18.6148 171.9 30.1563 173.893 31.8328C176.383 33.9286 174.723 31.8328 177.628 29.7371C180.534 27.6413 183.439 36.0244 185.099 33.5095C186.76 30.9946 186.345 20.9349 188.42 23.0306C190.495 25.1264 193.816 30.9946 195.061 29.7371C196.306 28.4797 186.345 17.1624 197.551 17.1624C208.758 17.1624 216.645 15.4858 210.834 26.3839C205.023 37.2819 212.909 46.0841 219.135 43.1501C225.361 40.216 236.983 21.354 248.605 21.354C260.227 21.354 264.792 38.5394 272.679 37.2819C280.565 36.0244 283.47 32.2521 280.981 29.3179C278.49 26.3839 259.812 28.4797 263.547 22.6115C267.283 16.7433 281.811 25.9647 283.471 24.2881C285.131 22.6115 258.882 4.58782 279.27 2.07289M240.719 511.838C245.117 512.068 249.546 512.184 254.001 512.184C278.489 512.184 302.165 508.674 324.563 502.123M240.719 511.838L324.563 502.123M240.719 511.838C243.485 508.88 252.424 502.963 266.038 502.963C283.055 502.963 304.224 496.257 311.28 501.286C316.925 505.31 322.487 503.521 324.563 502.123M279.27 2.07289C296.007 3.74766 312.266 7.06835 327.883 11.8724M279.27 2.07289L327.883 11.8724M327.883 11.8724C337.292 17.2685 353.784 28.0605 344.486 28.0605C332.864 28.0605 319.997 38.9585 326.638 41.4734C333.279 43.9883 350.297 62.8503 344.486 65.7844C338.675 68.7185 343.241 76.2633 338.675 75.8442C334.109 75.425 322.487 77.9399 327.883 78.7782C333.279 79.6165 350.712 93.8674 345.732 96.8019C340.75 99.7364 324.148 85.9041 322.902 93.8674C321.657 101.832 326.638 108.538 324.148 108.538C321.657 108.538 326.638 113.568 326.638 118.179C326.638 122.79 335.769 119.436 335.769 122.79C335.769 126.142 341.58 130.334 337.43 132.849C333.279 135.364 327.883 138.298 326.638 153.388C325.393 168.478 317.922 154.645 312.526 172.25C307.13 189.854 298.413 189.435 305.47 202.429C312.526 215.422 298.413 213.746 305.47 232.608C312.526 251.47 334.939 261.53 342.826 272.847C350.712 284.164 349.882 269.913 363.579 269.913C377.277 269.913 388.484 272.009 388.068 260.691C387.653 249.374 394.294 262.368 402.181 263.206C410.067 264.045 400.105 271.59 407.992 271.59C415.878 271.59 420.029 264.464 420.029 274.523C420.029 284.584 415.462 300.092 422.934 307.218C430.405 314.343 429.575 319.373 428.33 335.301C427.085 351.229 417.123 361.708 420.029 382.665C422.934 403.623 414.218 387.695 416.293 410.33C418.368 432.964 402.181 430.868 412.557 430.868C422.934 430.868 441.612 417.036 448.253 402.366C454.894 387.695 472.328 385.18 472.328 373.863C472.328 362.546 491.835 347.037 491.835 329.852C491.835 312.666 499.722 294.224 499.722 274.523C499.722 254.823 504.677 238.476 503.237 211.231M327.883 11.8724L503.237 211.231M327.883 11.8724C366.413 23.7241 401.045 44.604 429.365 72.0718M327.883 11.8724L429.365 72.0718M503.237 211.231C505.836 225.925 507.193 241.052 507.193 256.5C507.193 372.981 430.062 471.271 324.563 502.123M503.237 211.231L324.563 502.123M503.237 211.231C499.702 191.252 493.87 172.076 486.024 153.994M503.237 211.231L486.024 153.994M429.365 72.0718C430.681 74.1675 433.393 78.8621 433.726 80.874C434.141 83.3889 449.498 93.0298 449.498 100.155C449.498 105.856 456.647 107.84 460.221 108.119M429.365 72.0718L460.221 108.119M429.365 72.0718C440.716 83.0814 451.053 95.1495 460.221 108.119M486.024 153.994C483.95 150.997 478.886 143.748 475.233 138.717C471.58 133.687 474.909 134.386 477.03 135.364M486.024 153.994L477.03 135.364M486.024 153.994C483.27 147.645 480.268 141.431 477.03 135.364M477.03 135.364C471.984 125.909 466.365 116.811 460.221 108.119M477.03 135.364L460.221 108.119M46.8812 173.088C48.1264 171.272 51.696 168.31 56.0128 170.992C61.4086 174.346 60.1634 182.729 65.9744 183.567C71.7854 184.405 69.71 186.92 64.3142 186.92C58.9182 186.92 65.1442 184.405 63.484 184.405C61.8237 184.405 55.5976 176.86 55.1826 174.346C54.7675 171.83 43.5606 178.118 46.8812 173.088ZM72.6155 188.597C73.4456 193.208 72.6156 194.884 69.295 194.884C65.9744 194.884 73.8608 197.399 79.2566 196.98C84.6527 196.56 85.483 196.56 85.483 195.304C85.483 194.046 72.3361 185.243 72.6155 188.597ZM88.8031 197.399C92.9536 196.98 95.4443 197.818 93.3687 199.914C91.2939 202.01 85.0678 197.818 88.8031 197.399ZM58.9182 192.369C60.5135 192.659 61.8237 196.56 58.9182 196.56C56.0127 196.56 56.0128 194.046 56.8428 193.208C57.507 192.537 58.0591 192.213 58.9182 192.369ZM463.196 150.454C470.252 144.586 475.648 167.639 478.968 172.25C482.289 176.86 490.591 185.663 492.25 194.884C493.911 204.105 497.232 211.231 494.741 209.135C492.25 207.04 488.1 195.304 484.365 191.112C480.629 186.92 481.044 179.795 477.308 175.184C473.572 170.573 470.667 163.029 466.931 157.998C463.196 152.968 460.705 153.388 463.196 150.454ZM423.764 108.119C432.481 119.017 435.386 119.017 438.292 116.921C441.197 114.825 447.009 123.209 447.423 115.664C447.838 108.119 449.083 127.4 451.574 127.4C454.064 127.4 450.744 141.651 446.178 139.975C441.612 138.298 432.066 130.334 427.915 132.43C423.764 134.526 430.405 134.945 427.915 141.651C425.425 148.358 417.953 148.358 415.878 141.651C413.803 134.945 406.747 138.298 402.181 135.364C397.615 132.43 396.784 136.203 395.955 127.4C395.125 118.598 393.879 119.436 388.068 119.436C382.258 119.436 369.39 117.76 363.579 121.532C357.769 125.305 351.127 128.238 346.976 127.4C342.826 126.562 346.561 123.209 353.617 119.436C360.674 115.664 374.786 106.861 363.579 109.377C352.372 111.892 352.787 101.832 358.184 101.412C363.579 100.993 379.352 100.574 379.352 108.119C379.352 115.664 378.106 103.508 384.747 104.347C391.389 105.185 390.973 116.921 395.955 116.921C400.936 116.921 407.577 114.825 400.52 108.119C393.464 101.412 366.9 91.353 369.39 87.9993C371.88 84.6465 387.238 90.9338 396.784 97.6403C406.331 104.347 405.916 115.664 413.388 115.664C420.859 115.664 406.331 103.089 412.973 102.251C419.614 101.412 428.33 102.251 423.764 98.8979C419.199 95.5443 409.236 80.874 413.388 80.874C417.538 80.874 423.764 89.6762 423.764 86.3233C423.764 82.9697 415.048 77.9399 418.783 75.8442C422.519 73.7484 443.688 95.9635 439.952 96.8019C436.216 97.6403 427.915 92.1914 427.915 96.8019C427.915 101.412 427.085 110.215 423.764 108.119ZM340.75 45.665C350.297 55.7247 356.938 53.2098 363.579 54.4672C370.221 55.7247 371.465 43.9883 363.579 41.4734C355.693 38.9585 357.701 50.2757 350.297 49.0183C344.373 48.0122 341.464 46.3636 340.75 45.665ZM309.62 54.4672C303.892 54.2827 300.489 69.1377 307.545 69.1377C314.601 69.1377 320.412 67.0419 316.676 60.7545C313.688 55.7247 313.293 54.5856 309.62 54.4672ZM313.356 43.5692C310.865 46.3636 306.632 51.9523 309.62 51.9523C313.356 51.9523 316.676 51.114 316.676 54.4672C316.676 57.8205 316.676 60.7545 320.412 60.7545C324.148 60.7545 324.148 63.6887 324.148 67.4611C324.148 71.2334 329.959 70.3951 332.449 70.3951C334.939 70.3951 340.335 63.2695 334.109 62.012C327.883 60.7545 329.543 54.4672 324.148 54.4672C318.752 54.4672 319.167 48.1799 317.506 48.1799C316.178 48.1799 314.186 45.1061 313.356 43.5692ZM159.365 78.3591C166.006 74.1675 175.137 65.3653 180.119 65.7844C185.099 66.2036 172.647 72.91 176.383 79.6166C180.119 86.3233 172.647 79.6166 167.252 79.6166C161.856 79.6166 155.215 81.2574 159.365 78.3591Z" stroke="#C4C4C4" stroke-width="0.740741"/>
<path d="M70.3017 269.343C71.9575 269.343 73.2997 267.988 73.2997 266.316C73.2997 264.644 71.9575 263.288 70.3017 263.288C68.646 263.288 67.3037 264.644 67.3037 266.316C67.3037 267.988 68.646 269.343 70.3017 269.343Z" stroke="#EF2E2D" stroke-width="0.740741"/>
<path d="M67.387 245.787C69.0428 245.787 70.385 244.431 70.385 242.759C70.385 241.087 69.0428 239.732 67.387 239.732C65.7313 239.732 64.389 241.087 64.389 242.759C64.389 244.431 65.7313 245.787 67.387 245.787Z" stroke="#EF2E2D" stroke-width="0.740741"/>
<path d="M165.552 363.568C167.207 363.568 168.55 362.213 168.55 360.541C168.55 358.869 167.207 357.513 165.552 357.513C163.896 357.513 162.554 358.869 162.554 360.541C162.554 362.213 163.896 363.568 165.552 363.568Z" stroke="#EF2E2D" stroke-width="0.740741"/>
<path d="M130.564 404.792C132.22 404.792 133.562 403.436 133.562 401.764C133.562 400.092 132.22 398.737 130.564 398.737C128.908 398.737 127.566 400.092 127.566 401.764C127.566 403.436 128.908 404.792 130.564 404.792Z" stroke="#EF2E2D" stroke-width="0.740741"/>
<path d="M96.5426 91.6888C98.1983 91.6888 99.5406 90.3333 99.5406 88.6613C99.5406 86.9893 98.1983 85.6338 96.5426 85.6338C94.8868 85.6338 93.5446 86.9893 93.5446 88.6613C93.5446 90.3333 94.8868 91.6888 96.5426 91.6888Z" stroke="#EF2E2D" stroke-width="0.740741"/>
<path d="M126.676 77.9476C128.331 77.9476 129.674 76.5921 129.674 74.9201C129.674 73.248 128.331 71.8926 126.676 71.8926C125.02 71.8926 123.678 73.248 123.678 74.9201C123.678 76.5921 125.02 77.9476 126.676 77.9476Z" stroke="#EF2E2D" stroke-width="0.740741"/>
<path d="M139.31 81.8736C140.966 81.8736 142.308 80.5182 142.308 78.8461C142.308 77.1741 140.966 75.8186 139.31 75.8186C137.654 75.8186 136.312 77.1741 136.312 78.8461C136.312 80.5182 137.654 81.8736 139.31 81.8736Z" stroke="#EF2E2D" stroke-width="0.740741"/>
<path d="M111.125 100.523C112.781 100.523 114.123 99.1671 114.123 97.495C114.123 95.823 112.781 94.4675 111.125 94.4675C109.469 94.4675 108.127 95.823 108.127 97.495C108.127 99.1671 109.469 100.523 111.125 100.523Z" stroke="#EF2E2D" stroke-width="0.740741"/>
<path d="M96.5426 107.394C98.1983 107.394 99.5406 106.038 99.5406 104.366C99.5406 102.694 98.1983 101.339 96.5426 101.339C94.8868 101.339 93.5446 102.694 93.5446 104.366C93.5446 106.038 94.8868 107.394 96.5426 107.394Z" stroke="#EF2E2D" stroke-width="0.740741"/>
<path d="M41.1422 135.857C42.798 135.857 44.1402 134.502 44.1402 132.83C44.1402 131.158 42.798 129.802 41.1422 129.802C39.4865 129.802 38.1442 131.158 38.1442 132.83C38.1442 134.502 39.4865 135.857 41.1422 135.857Z" stroke="#EF2E2D" stroke-width="0.740741"/>
<path d="M53.7793 114.264C55.4351 114.264 56.7773 112.909 56.7773 111.236C56.7773 109.564 55.4351 108.209 53.7793 108.209C52.1236 108.209 50.7813 109.564 50.7813 111.236C50.7813 112.909 52.1236 114.264 53.7793 114.264Z" stroke="#EF2E2D" stroke-width="0.740741"/>
<path d="M81.9654 81.8736C83.6211 81.8736 84.9634 80.5182 84.9634 78.8461C84.9634 77.1741 83.6211 75.8186 81.9654 75.8186C80.3096 75.8186 78.9673 77.1741 78.9673 78.8461C78.9673 80.5182 80.3096 81.8736 81.9654 81.8736Z" stroke="#EF2E2D" stroke-width="0.740741"/>
<path d="M219.983 12.1861C221.638 12.1861 222.981 10.8307 222.981 9.15861C222.981 7.48656 221.638 6.1311 219.983 6.1311C218.327 6.1311 216.985 7.48656 216.985 9.15861C216.985 10.8307 218.327 12.1861 219.983 12.1861Z" stroke="#EF2E2D" stroke-width="0.740741"/>
<path d="M345.362 180.025C347.017 180.025 348.36 178.67 348.36 176.998C348.36 175.326 347.017 173.97 345.362 173.97C343.706 173.97 342.364 175.326 342.364 176.998C342.364 178.67 343.706 180.025 345.362 180.025Z" stroke="#EF2E2D" stroke-width="0.740741"/>
<path d="M322.034 195.729C323.69 195.729 325.032 194.374 325.032 192.702C325.032 191.03 323.69 189.674 322.034 189.674C320.379 189.674 319.036 191.03 319.036 192.702C319.036 194.374 320.379 195.729 322.034 195.729Z" stroke="#EF2E2D" stroke-width="0.740741"/>
<path d="M207.348 195.729C209.004 195.729 210.346 194.374 210.346 192.702C210.346 191.03 209.004 189.674 207.348 189.674C205.693 189.674 204.35 191.03 204.35 192.702C204.35 194.374 205.693 195.729 207.348 195.729Z" stroke="#EF2E2D" stroke-width="0.740741"/>
<path d="M352.167 80.8924C353.823 80.8924 355.165 79.537 355.165 77.8649C355.165 76.1929 353.823 74.8374 352.167 74.8374C350.512 74.8374 349.169 76.1929 349.169 77.8649C349.169 79.537 350.512 80.8924 352.167 80.8924Z" stroke="#EF2E2D" stroke-width="0.740741"/>
<path d="M475.602 256.584C477.258 256.584 478.6 255.228 478.6 253.556C478.6 251.884 477.258 250.529 475.602 250.529C473.947 250.529 472.604 251.884 472.604 253.556C472.604 255.228 473.947 256.584 475.602 256.584Z" stroke="#EF2E2D" stroke-width="0.740741"/>
<path d="M449.362 324.308C451.017 324.308 452.36 322.952 452.36 321.28C452.36 319.608 451.017 318.253 449.362 318.253C447.706 318.253 446.364 319.608 446.364 321.28C446.364 322.952 447.706 324.308 449.362 324.308Z" stroke="#EF2E2D" stroke-width="0.740741"/>
<path d="M442.559 397.921C444.214 397.921 445.557 396.566 445.557 394.893C445.557 393.221 444.214 391.866 442.559 391.866C440.903 391.866 439.561 393.221 439.561 394.893C439.561 396.566 440.903 397.921 442.559 397.921Z" stroke="#EF2E2D" stroke-width="0.740741"/>
<path d="M461.025 132.912C462.681 132.912 464.023 131.557 464.023 129.885C464.023 128.213 462.681 126.857 461.025 126.857C459.369 126.857 458.027 128.213 458.027 129.885C458.027 131.557 459.369 132.912 461.025 132.912Z" stroke="#EF2E2D" stroke-width="0.740741"/>
</svg>
