<svg width="178" height="43" viewBox="0 0 178 43" fill="none" xmlns="http://www.w3.org/2000/svg">
<path d="M68.9078 15.5195V12.3611H53.0847V32.9529H57.0482V24.2207H67.917V21.2171H57.0482V15.5195H68.9078ZM71.7114 25.3355C71.7114 30.5995 74.684 33.4483 80.6293 33.4483C86.5746 33.4483 89.5473 30.5686 89.5473 25.3355V12.3611H85.5838V24.8091C85.5838 29.2061 83.8807 30.197 80.6293 30.197C77.378 30.197 75.6749 29.2061 75.6749 24.8091V12.3611H71.7114V25.3355ZM109.323 27.7817C109.323 24.84 107.837 23.8801 105.762 23.2918C108.146 22.7034 109.911 20.8455 109.911 17.9658C109.911 14.5906 107.651 12.3611 103.223 12.3611H92.8494V32.9529H96.813V24.5304H101.551C103.904 24.5304 105.421 25.5522 105.421 28.1843V29.5467C105.421 31.2188 105.607 32.3336 105.824 32.9529H109.725C109.571 32.1788 109.323 31.1259 109.323 29.4538V27.7817ZM102.603 21.6506H96.813V15.4576H102.511C104.802 15.4576 105.793 16.5414 105.793 18.4303C105.793 20.4739 104.988 21.6506 102.603 21.6506ZM117.255 29.7944V23.942H128.216V20.9384H117.255V15.5195H129.145V12.3611H113.291V32.9529H129.238V29.7944H117.255ZM147.757 12.3611V30.2899C147.354 29.1751 146.89 28.0604 146.487 27.1934L139.241 12.3611H132.584V32.9529H136.455V14.9931C136.795 16.0459 137.26 17.1297 137.786 18.2445L144.97 32.9529H151.627V12.3611H147.757ZM165.242 33.4793C172.86 33.4793 175.894 28.4939 175.894 22.6415C175.894 16.882 172.86 11.8037 165.242 11.8037C157.625 11.8037 154.59 16.851 154.59 22.6415C154.59 28.5249 157.625 33.4793 165.242 33.4793ZM158.709 22.6415C158.709 17.6871 160.443 15.0551 165.242 15.0551C170.042 15.0551 171.745 17.6871 171.745 22.6415C171.745 27.5959 170.042 30.228 165.242 30.228C160.443 30.228 158.709 27.5959 158.709 22.6415Z" fill="#0F1011"/>
<rect x="7.5045" width="10.613" height="10.613" rx="1.324" transform="rotate(45 7.5045 0)" fill="#0F1011"/>
<rect x="7.5045" y="13.6201" width="10.613" height="10.613" rx="1.324" transform="rotate(45 7.5045 13.6201)" fill="#0F1011"/>
<rect x="21.1245" width="10.613" height="10.613" rx="1.324" transform="rotate(45 21.1245 0)" fill="#0F1011"/>
<rect x="21.1245" y="13.6201" width="10.613" height="10.613" rx="1.324" transform="rotate(45 21.1245 13.6201)" fill="#0F1011"/>
<rect x="34.7445" width="10.613" height="10.613" rx="1.324" transform="rotate(45 34.7445 0)" fill="#0F1011"/>
<rect x="7.5045" y="27.2397" width="10.613" height="10.613" rx="1.324" transform="rotate(45 7.5045 27.2397)" fill="#0F1011"/>
</svg>
