<svg width="199" height="201" viewBox="0 0 199 201" fill="none" xmlns="http://www.w3.org/2000/svg">
<path d="M188.633 89.1331C188.633 138.347 148.714 178.266 99.4997 178.266C50.2855 178.266 10.3667 138.347 10.3667 89.1331C10.3667 39.9189 50.2855 0 99.4997 0C148.714 0 188.633 39.9189 188.633 89.1331Z" fill="#353133"/>
<path d="M99.4997 79.5831C85.2066 79.5831 67.6665 87.6687 67.6665 92.3164V111.416C67.6665 116.096 85.2066 124.15 99.4997 124.15C113.793 124.15 131.333 116.096 131.333 111.416V92.3164C131.333 87.6687 113.793 79.5831 99.4997 79.5831Z" fill="#EF2E2D"/>
<path d="M99.4997 79.5508C108.381 79.5508 115.416 72.2928 115.416 63.3158V57.9041C115.416 48.9272 108.381 41.6692 99.4997 41.6692C90.6182 41.6692 83.5831 48.9272 83.5831 57.9041V63.3158C83.5831 72.2609 90.6182 79.5508 99.4997 79.5508Z" fill="white"/>
<path d="M99.4997 79.5508C108.381 79.5508 115.416 72.2928 115.416 63.3158V57.9041C115.416 48.9272 108.381 41.6692 99.4997 41.6692C90.6182 41.6692 83.5831 48.9272 83.5831 57.9041V63.3158C83.5831 72.2609 90.6182 79.5508 99.4997 79.5508Z" stroke="black" stroke-width="6.36665" stroke-miterlimit="10"/>
<path d="M131.334 111.416V92.3164C131.334 87.6687 113.826 79.5831 99.5006 79.5831C85.2074 79.5831 67.6991 87.6687 67.6991 92.3164V111.416" stroke="black" stroke-width="6.36665" stroke-miterlimit="10" stroke-linecap="round" stroke-linejoin="round"/>
<path d="M99.4997 155.983C85.2066 155.983 67.6665 164.037 67.6665 168.716V187.816C67.6665 192.496 85.2066 200.549 99.4997 200.549C113.793 200.549 131.333 192.496 131.333 187.816V168.716C131.333 164.069 113.793 155.983 99.4997 155.983Z" fill="#EF2E2D"/>
<path d="M99.4997 155.951C108.381 155.951 115.416 148.693 115.416 139.716V134.304C115.416 125.327 108.381 118.069 99.4997 118.069C90.6182 118.069 83.5831 125.327 83.5831 134.304V139.716C83.5831 148.661 90.6182 155.951 99.4997 155.951Z" fill="white"/>
<path d="M99.4997 155.951C108.381 155.951 115.416 148.693 115.416 139.716V134.304C115.416 125.327 108.381 118.069 99.4997 118.069C90.6182 118.069 83.5831 125.327 83.5831 134.304V139.716C83.5831 148.661 90.6182 155.951 99.4997 155.951Z" stroke="black" stroke-width="6.36665" stroke-miterlimit="10"/>
<path d="M131.334 187.816V168.716C131.334 164.069 113.826 155.983 99.5006 155.983C85.2074 155.983 67.6991 164.037 67.6991 168.716V187.816" stroke="black" stroke-width="6.36665" stroke-miterlimit="10" stroke-linecap="round" stroke-linejoin="round"/>
<path d="M35.8332 117.783C21.5401 117.783 4 125.837 4 130.516V149.616C4 154.296 21.5401 162.35 35.8332 162.35C50.1264 162.35 67.6665 154.296 67.6665 149.616V130.516C67.6665 125.869 50.1264 117.783 35.8332 117.783Z" fill="#EF2E2D"/>
<path d="M35.8332 117.751C44.7147 117.751 51.7499 110.493 51.7499 101.516V96.104C51.7499 87.1271 44.7147 79.8691 35.8332 79.8691C26.9518 79.8691 19.9166 87.1271 19.9166 96.104V101.516C19.9166 110.461 26.9518 117.751 35.8332 117.751Z" fill="white"/>
<path d="M35.8332 117.751C44.7147 117.751 51.7499 110.493 51.7499 101.516V96.104C51.7499 87.1271 44.7147 79.8691 35.8332 79.8691C26.9518 79.8691 19.9166 87.1271 19.9166 96.104V101.516C19.9166 110.461 26.9518 117.751 35.8332 117.751Z" stroke="black" stroke-width="6.36665" stroke-miterlimit="10"/>
<path d="M67.6673 149.616V130.516C67.6673 125.869 50.159 117.783 35.834 117.783C21.5409 117.783 4.03264 125.837 4.03264 130.516V149.616" stroke="black" stroke-width="6.36665" stroke-miterlimit="10" stroke-linecap="round" stroke-linejoin="round"/>
<path d="M163.166 117.783C148.873 117.783 131.333 125.837 131.333 130.516V149.616C131.333 154.296 148.873 162.35 163.166 162.35C177.459 162.35 194.999 154.296 194.999 149.616V130.516C194.999 125.869 177.459 117.783 163.166 117.783Z" fill="#EF2E2D"/>
<path d="M163.166 117.751C172.048 117.751 179.083 110.493 179.083 101.516V96.104C179.083 87.1271 172.048 79.8691 163.166 79.8691C154.285 79.8691 147.25 87.1271 147.25 96.104V101.516C147.25 110.461 154.285 117.751 163.166 117.751Z" fill="white"/>
<path d="M163.166 117.751C172.048 117.751 179.083 110.493 179.083 101.516V96.104C179.083 87.1271 172.048 79.8691 163.166 79.8691C154.285 79.8691 147.25 87.1271 147.25 96.104V101.516C147.25 110.461 154.285 117.751 163.166 117.751Z" stroke="black" stroke-width="6.36665" stroke-miterlimit="10"/>
<path d="M195 149.616V130.516C195 125.869 177.492 117.783 163.167 117.783C148.874 117.783 131.366 125.837 131.366 130.516V149.616" stroke="black" stroke-width="6.36665" stroke-miterlimit="10" stroke-linecap="round" stroke-linejoin="round"/>
<path d="M58.1165 9.54996L64.4832 15.9166M51.7499 44.5665V50.9332V44.5665ZM51.7499 57.2998V63.6665V57.2998ZM48.5665 54.1165H42.1999H48.5665ZM61.2998 54.1165H54.9332H61.2998ZM64.4832 25.4666L58.1165 31.8332L64.4832 25.4666ZM80.3998 9.54996L74.0331 15.9166L80.3998 9.54996ZM74.0331 25.4666L80.3998 31.8332L74.0331 25.4666Z" stroke="#BCC0C4" stroke-width="6.36665" stroke-miterlimit="10"/>
</svg>
