<svg width="200" height="189" viewBox="0 0 200 189" fill="none" xmlns="http://www.w3.org/2000/svg">
<path d="M95.7398 164.643C136.278 164.643 169.14 131.781 169.14 91.243C169.14 50.7051 136.278 17.8427 95.7398 17.8427C55.2019 17.8427 22.3395 50.7051 22.3395 91.243C22.3395 131.781 55.2019 164.643 95.7398 164.643Z" fill="#353133"/>
<path d="M101.038 49.7853C107.707 40.7538 120.409 38.839 129.44 45.5089C138.472 52.1788 140.387 64.8802 133.717 73.9116" stroke="#BCC0C4" stroke-width="6.38264" stroke-miterlimit="10"/>
<path d="M56.0716 77.7731C44.9659 79.273 37.2109 89.5171 38.7428 100.655C40.2746 111.793 50.4868 119.579 61.5607 118.079" stroke="#BCC0C4" stroke-width="6.38264" stroke-miterlimit="10"/>
<path d="M96.2506 135.217C101.867 144.919 114.282 148.206 124.015 142.589C133.749 136.972 137.1 124.558 131.483 114.889" stroke="#BCC0C4" stroke-width="6.38264" stroke-miterlimit="10"/>
<path d="M81.4582 31.2597C83.5985 18.0722 74.6429 5.64655 61.4554 3.5063C48.2678 1.36605 35.8422 10.3216 33.7019 23.5092C31.5617 36.6967 40.5173 49.1223 53.7048 51.2626C66.8924 53.4029 79.318 44.4473 81.4582 31.2597Z" fill="white" stroke="black" stroke-width="6.38264" stroke-miterlimit="10"/>
<path d="M83.9654 160.864C87.0355 147.862 78.9842 134.833 65.9824 131.763C52.9805 128.693 39.9516 136.744 36.8815 149.746C33.8114 162.748 41.8627 175.777 54.8645 178.847C67.8664 181.917 80.8953 173.866 83.9654 160.864Z" fill="white" stroke="black" stroke-width="6.38264" stroke-miterlimit="10"/>
<path d="M189.699 111.602C199.146 102.155 199.146 86.8386 189.699 77.3918C180.252 67.945 164.936 67.945 155.489 77.3918C146.043 86.8386 146.043 102.155 155.489 111.602C164.936 121.048 180.252 121.048 189.699 111.602Z" fill="white" stroke="black" stroke-width="6.38264" stroke-miterlimit="10"/>
<path d="M172.012 20.5547C172.012 27.0331 166.747 32.2988 160.268 32.2988C153.79 32.2988 148.524 27.0331 148.524 20.5547C148.524 14.0763 153.79 8.81067 160.268 8.81067C166.747 8.81067 172.012 14.0763 172.012 20.5547Z" stroke="#BCC0C4" stroke-width="6.38264" stroke-miterlimit="10"/>
<path d="M9.57422 46.5645V65.7124" stroke="#BCC0C4" stroke-width="6.38264" stroke-miterlimit="10"/>
<path d="M19.1479 56.1387H0" stroke="#BCC0C4" stroke-width="6.38264" stroke-miterlimit="10"/>
<path d="M60.6354 145.495V164.643" stroke="#1B191A" stroke-width="6.38264" stroke-miterlimit="10"/>
<path d="M70.2093 155.069H51.0614" stroke="#1B191A" stroke-width="6.38264" stroke-miterlimit="10"/>
<path d="M66.7621 41.5219L96.5052 91.1469" stroke="black" stroke-width="6.38264" stroke-miterlimit="10" stroke-linecap="round"/>
<path d="M76.5918 125.931L96.5056 91.1459" stroke="black" stroke-width="6.38264" stroke-miterlimit="10" stroke-linecap="round"/>
<path d="M156.727 93.5394L96.5063 91.1459" stroke="black" stroke-width="6.38264" stroke-miterlimit="10" stroke-linecap="round"/>
<path d="M125.363 96.1113C127.932 79.8867 116.862 64.6514 100.638 62.0822C84.4131 59.5131 69.1777 70.5831 66.6086 86.8077C64.0395 103.032 75.1094 118.268 91.334 120.837C107.559 123.406 122.794 112.336 125.363 96.1113Z" fill="#EF2E2D" stroke="black" stroke-width="6.38264" stroke-miterlimit="10"/>
<path d="M53.6457 18.9272C53.6457 20.9058 52.0501 22.5014 50.0715 22.5014C48.0929 22.5014 46.4972 20.9058 46.4972 18.9272C46.4972 16.9485 48.0929 15.3529 50.0715 15.3529C52.0501 15.321 53.6457 16.9485 53.6457 18.9272Z" fill="black"/>
<path d="M167.863 84.4118C167.863 86.3904 166.267 87.9861 164.288 87.9861C162.31 87.9861 160.714 86.3904 160.714 84.4118C160.714 82.4332 162.31 80.8375 164.288 80.8375C166.267 80.8056 167.863 82.4332 167.863 84.4118Z" fill="black"/>
<path d="M84.0272 81.8589C86.0012 81.8589 87.6014 80.2586 87.6014 78.2846C87.6014 76.3106 86.0012 74.7103 84.0272 74.7103C82.0531 74.7103 80.4529 76.3106 80.4529 78.2846C80.4529 80.2586 82.0531 81.8589 84.0272 81.8589Z" fill="black"/>
</svg>
