<svg width="197" height="208" viewBox="0 0 197 208" fill="none" xmlns="http://www.w3.org/2000/svg">
<path d="M160.403 107.636C160.403 142.764 131.93 171.273 96.7663 171.273C61.639 171.273 33.1299 142.8 33.1299 107.636C33.1299 72.5091 61.6027 44 96.7663 44C131.894 44 160.403 72.5091 160.403 107.636Z" fill="#353133"/>
<path d="M80.3999 14.9091L14.9454 62.1818L116.764 91.2727M80.3999 14.9091L182.218 44M80.3999 14.9091V40.3636M116.764 91.2727L182.218 44M116.764 91.2727V193.091M182.218 44V145.818M54.9091 135.127L44 143.018M102.182 122.982L80.3636 116.764L62.1818 129.891M127.636 130.255L109.455 125.055M149.491 136.473L134.982 132.327M36.7272 148.255L14.9091 164M14.9091 164L116.727 193.091L182.182 145.818L156.727 138.545M14.9091 164V62.1818M80.3999 94.9091V116.727M80.3999 69.4545V87.6364M80.3999 47.6364V62.1818" stroke="white" stroke-width="7.27273" stroke-miterlimit="10" stroke-linejoin="round"/>
<path d="M127.675 193.091C127.675 199.127 122.803 204 116.766 204C110.73 204 105.857 199.127 105.857 193.091C105.857 187.055 110.73 182.182 116.766 182.182C122.766 182.182 127.675 187.091 127.675 193.091Z" fill="#EF2E2D"/>
<path d="M127.675 193.091C127.675 199.127 122.803 204 116.766 204C110.73 204 105.857 199.127 105.857 193.091C105.857 187.055 110.73 182.182 116.766 182.182C122.766 182.182 127.675 187.091 127.675 193.091Z" stroke="black" stroke-width="7.27273" stroke-miterlimit="10"/>
<path d="M193.13 145.818C193.13 151.855 188.257 156.727 182.221 156.727C176.184 156.727 171.312 151.855 171.312 145.818C171.312 139.782 176.184 134.909 182.221 134.909C188.221 134.909 193.13 139.818 193.13 145.818Z" fill="#EF2E2D"/>
<path d="M193.13 145.818C193.13 151.855 188.257 156.727 182.221 156.727C176.184 156.727 171.312 151.855 171.312 145.818C171.312 139.782 176.184 134.909 182.221 134.909C188.221 134.909 193.13 139.818 193.13 145.818Z" stroke="black" stroke-width="7.27273" stroke-miterlimit="10"/>
<path d="M91.3117 116.727C91.3117 122.764 86.439 127.636 80.4026 127.636C74.3663 127.636 69.4935 122.764 69.4935 116.727C69.4935 110.691 74.3663 105.818 80.4026 105.818C86.4026 105.818 91.3117 110.727 91.3117 116.727Z" fill="#EF2E2D"/>
<path d="M69.4935 116.727C69.4935 122.764 74.3662 127.636 80.4026 127.636C86.4389 127.636 91.3116 122.764 91.3116 116.727C91.3116 110.691 86.4389 105.818 80.4026 105.818C74.4026 105.818 69.4935 110.727 69.4935 116.727Z" stroke="black" stroke-width="7.27273" stroke-miterlimit="10"/>
<path d="M25.8181 164C25.8181 170.036 20.9453 174.909 14.909 174.909C8.87261 174.909 3.99988 170.036 3.99988 164C3.99988 157.964 8.87261 153.091 14.909 153.091C20.9453 153.091 25.8181 158 25.8181 164Z" fill="#EF2E2D"/>
<path d="M25.8181 164C25.8181 170.036 20.9453 174.909 14.909 174.909C8.87261 174.909 3.99988 170.036 3.99988 164C3.99988 157.964 8.87261 153.091 14.909 153.091C20.9453 153.091 25.8181 158 25.8181 164Z" stroke="black" stroke-width="7.27273" stroke-miterlimit="10"/>
<path d="M25.8181 62.1818C25.8181 68.2182 20.9453 73.0909 14.909 73.0909C8.87261 73.0909 3.99988 68.2182 3.99988 62.1818C3.99988 56.1455 8.87261 51.2727 14.909 51.2727C20.9453 51.2727 25.8181 56.1818 25.8181 62.1818Z" fill="#EF2E2D"/>
<path d="M25.8181 62.1818C25.8181 68.2182 20.9453 73.0909 14.909 73.0909C8.87261 73.0909 3.99988 68.2182 3.99988 62.1818C3.99988 56.1455 8.87261 51.2727 14.909 51.2727C20.9453 51.2727 25.8181 56.1818 25.8181 62.1818Z" stroke="black" stroke-width="7.27273" stroke-miterlimit="10"/>
<path d="M91.2726 14.9091C91.2726 20.9455 86.3999 25.8182 80.3636 25.8182C74.3272 25.8182 69.4545 20.9455 69.4545 14.9091C69.4545 8.87273 74.3272 4 80.3636 4C86.3999 4 91.309 8.90909 91.2726 14.9091Z" fill="#EF2E2D"/>
<path d="M91.2726 14.9091C91.2726 20.9455 86.3999 25.8182 80.3636 25.8182C74.3272 25.8182 69.4545 20.9455 69.4545 14.9091C69.4545 8.87273 74.3272 4 80.3636 4C86.3999 4 91.309 8.90909 91.2726 14.9091Z" stroke="black" stroke-width="7.27273" stroke-miterlimit="10"/>
<path d="M193.091 44C193.091 50.0364 188.218 54.9091 182.182 54.9091C176.145 54.9091 171.273 50.0364 171.273 44C171.273 37.9636 176.145 33.0909 182.182 33.0909C188.218 33.0909 193.091 38 193.091 44Z" fill="#EF2E2D"/>
<path d="M193.091 44C193.091 50.0364 188.218 54.9091 182.182 54.9091C176.145 54.9091 171.273 50.0364 171.273 44C171.273 37.9636 176.145 33.0909 182.182 33.0909C188.218 33.0909 193.091 38 193.091 44Z" stroke="black" stroke-width="7.27273" stroke-miterlimit="10"/>
<path d="M127.675 91.2727C127.675 97.3091 122.803 102.182 116.766 102.182C110.73 102.182 105.857 97.3091 105.857 91.2727C105.857 85.2364 110.73 80.3636 116.766 80.3636C122.766 80.3636 127.675 85.2727 127.675 91.2727Z" fill="white"/>
<path d="M127.675 91.2727C127.675 97.3091 122.803 102.182 116.766 102.182C110.73 102.182 105.857 97.3091 105.857 91.2727C105.857 85.2364 110.73 80.3636 116.766 80.3636C122.766 80.3636 127.675 85.2727 127.675 91.2727Z" stroke="black" stroke-width="7.27273" stroke-miterlimit="10"/>
</svg>
