<svg width="208" height="204" viewBox="0 0 208 204" fill="none" xmlns="http://www.w3.org/2000/svg">
<path d="M78.1937 148.387C119.17 148.387 152.387 115.17 152.387 74.1937C152.387 33.2177 119.17 0 78.1937 0C37.2177 0 4 33.2177 4 74.1937C4 115.17 37.2177 148.387 78.1937 148.387Z" fill="#353133"/>
<path d="M120.129 96.7744L71.7421 116.129L23.3549 96.7744V38.7097L71.7421 19.3549L120.129 38.7097V96.7744Z" fill="white"/>
<path d="M204 132.259L155.613 151.614L107.226 132.259V74.194L155.613 54.8391L204 74.194V132.259Z" fill="white"/>
<path d="M129.807 180.647L81.4193 200.002L33.0321 180.647V122.582L81.4193 103.227L129.807 122.582V180.647Z" fill="#EF2E2D"/>
<path d="M120.129 38.7098L71.7421 58.0647L23.3549 38.7098" stroke="black" stroke-width="6.51613" stroke-miterlimit="10" stroke-linecap="round" stroke-linejoin="round"/>
<path d="M57.1251 111.875L23.3549 96.7744V38.7098L71.7421 19.3549L120.129 38.7098V67.5001" stroke="black" stroke-width="6.51613" stroke-miterlimit="10" stroke-linecap="round" stroke-linejoin="round"/>
<path d="M71.7414 58.0641V103.75" stroke="black" stroke-width="6.51613" stroke-miterlimit="10" stroke-linecap="round" stroke-linejoin="round"/>
<path d="M204 74.1925L155.613 93.5474L107.226 74.1925" stroke="black" stroke-width="6.51613" stroke-miterlimit="10" stroke-linecap="round" stroke-linejoin="round"/>
<path d="M107.226 111.875V74.194L155.613 54.8391L204 74.194V132.259L155.613 151.614L131.5 142.5" stroke="black" stroke-width="6.51613" stroke-miterlimit="10" stroke-linecap="round" stroke-linejoin="round"/>
<path d="M155.614 93.5488V151.613" stroke="black" stroke-width="6.51613" stroke-miterlimit="10" stroke-linecap="round" stroke-linejoin="round"/>
<path d="M129.807 122.58L81.4193 141.935L33.0321 122.58" stroke="black" stroke-width="6.51613" stroke-miterlimit="10" stroke-linecap="round" stroke-linejoin="round"/>
<path d="M129.807 180.647L81.4193 200.002L33.0321 180.647V122.582L81.4193 103.227L129.807 122.582V180.647Z" stroke="black" stroke-width="6.51613" stroke-miterlimit="10" stroke-linecap="round" stroke-linejoin="round"/>
<path d="M81.4196 141.936V200" stroke="black" stroke-width="6.51613" stroke-miterlimit="10" stroke-linecap="round" stroke-linejoin="round"/>
<path d="M178.194 189.676L168.517 193.547L158.839 189.676V178.063L168.517 174.193L178.194 178.063V189.676Z" stroke="#BCC0C4" stroke-width="6.51613" stroke-miterlimit="10"/>
<path d="M158.84 31.6133L149.162 35.4842L139.485 31.6133V20.0003L149.162 16.1293L158.84 20.0003V31.6133Z" stroke="#BCC0C4" stroke-width="6.51613" stroke-miterlimit="10"/>
<path d="M23.3549 125.161L13.6774 129.032L4 125.161V113.548L13.6774 109.677L23.3549 113.548V125.161Z" stroke="#BCC0C4" stroke-width="6.51613" stroke-miterlimit="10"/>
</svg>
