<svg id="edZN3GY8sj91" xmlns="http://www.w3.org/2000/svg" xmlns:xlink="http://www.w3.org/1999/xlink" viewBox="0 0 200 189" shape-rendering="geometricPrecision" text-rendering="geometricPrecision" style="background-color:transparent"><path d="M95.7398,164.643c40.5382,0,73.4002-32.862,73.4002-73.4c0-40.5379-32.862-73.4003-73.4002-73.4003-40.5379,0-73.4003,32.8624-73.4003,73.4003c0,40.538,32.8624,73.4,73.4003,73.4Z" fill-opacity="0.9"/><path d="M101.038,49.7853c6.669-9.0315,19.371-10.9463,28.402-4.2764c9.032,6.6699,10.947,19.3713,4.277,28.4027" fill="none" stroke="#bcc0c4" stroke-width="6.38264" stroke-miterlimit="10"/><path d="M56.0716,77.7731C44.9659,79.273,37.2109,89.5171,38.7428,100.655c1.5318,11.138,11.744,18.924,22.8179,17.424" fill="none" stroke="#bcc0c4" stroke-width="6.38264" stroke-miterlimit="10"/><path d="M96.2506,135.217c5.6164,9.702,18.0314,12.989,27.7644,7.372c9.734-5.617,13.085-18.031,7.468-27.7" fill="none" stroke="#bcc0c4" stroke-width="6.38264" stroke-miterlimit="10"/><path d="M81.4582,31.2597C83.5985,18.0722,74.6429,5.64655,61.4554,3.5063s-25.6132,6.8153-27.7535,20.0029s6.8154,25.6131,20.0029,27.7534s25.6132-6.8153,27.7534-20.0029Z" fill="#fe5900" stroke="#000" stroke-width="6.38264" stroke-miterlimit="10"/><path d="M83.9654,160.864c3.0701-13.002-4.9812-26.031-17.983-29.101s-26.0308,4.981-29.1009,17.983s4.9812,26.031,17.983,29.101c13.0019,3.07,26.0308-4.981,29.1009-17.983Z" fill="#fe5900" stroke="#000" stroke-width="6.38264" stroke-miterlimit="10"/><path d="M189.699,111.602c9.447-9.447,9.447-24.7634,0-34.2102s-24.763-9.4468-34.21,0c-9.446,9.4468-9.446,24.7632,0,34.2102c9.447,9.446,24.763,9.446,34.21,0Z" fill="#fe5900" stroke="#000" stroke-width="6.38264" stroke-miterlimit="10"/><path d="M172.012,20.5547c0,6.4784-5.265,11.7441-11.744,11.7441-6.478,0-11.744-5.2657-11.744-11.7441s5.266-11.74403,11.744-11.74403c6.479,0,11.744,5.26563,11.744,11.74403Z" fill="#f00" stroke="#fff" stroke-width="6.38264" stroke-miterlimit="10"/><path d="M9.57422,46.5645v19.1479" fill="#f00" stroke="#f00" stroke-width="6.38264" stroke-miterlimit="10"/><path d="M19.1479,56.1387h-19.1479" fill="#f00" stroke="#f00" stroke-width="6.38264" stroke-miterlimit="10"/><path d="M60.6354,145.495v19.148" fill="none" stroke="#1b191a" stroke-width="6.38264" stroke-miterlimit="10"/><path d="M70.2093,155.069h-19.1479" fill="none" stroke="#1b191a" stroke-width="6.38264" stroke-miterlimit="10"/><path d="M66.7621,41.5219l29.7431,49.625" fill="none" stroke="#000" stroke-width="6.38264" stroke-linecap="round" stroke-miterlimit="10"/><path d="M76.5918,125.931L96.5056,91.1459" fill="none" stroke="#000" stroke-width="6.38264" stroke-linecap="round" stroke-miterlimit="10"/><path d="M156.727,93.5394L96.5063,91.1459" fill="none" stroke="#000" stroke-width="6.38264" stroke-linecap="round" stroke-miterlimit="10"/><path d="M125.363,96.1113c2.569-16.2246-8.501-31.4599-24.725-34.0291-16.2249-2.5691-31.4603,8.5009-34.0294,24.7255-2.5691,16.2243,8.5008,31.4603,24.7254,34.0293c16.225,2.569,31.46-8.501,34.029-24.7257Z" fill="#ef2e2d" stroke="#000" stroke-width="6.38264" stroke-miterlimit="10"/><path d="M53.6457,18.9272c0,1.9786-1.5956,3.5742-3.5742,3.5742s-3.5743-1.5956-3.5743-3.5742s1.5957-3.5743,3.5743-3.5743c1.9786-.0319,3.5742,1.5956,3.5742,3.5743Z"/><path d="M167.863,84.4118c0,1.9786-1.596,3.5743-3.575,3.5743-1.978,0-3.574-1.5957-3.574-3.5743s1.596-3.5743,3.574-3.5743c1.979-.0319,3.575,1.5957,3.575,3.5743Z"/><path d="M84.0272,81.8589c1.974,0,3.5742-1.6003,3.5742-3.5743s-1.6002-3.5743-3.5742-3.5743-3.5743,1.6003-3.5743,3.5743s1.6002,3.5743,3.5743,3.5743Z"/></svg>