<svg width="190" height="190" viewBox="0 0 190 190" fill="none" xmlns="http://www.w3.org/2000/svg">
<path d="M94.5 167C134.541 167 167 134.765 167 95C167 55.2355 134.541 23 94.5 23C54.4594 23 22 55.2355 22 95C22 134.765 54.4594 167 94.5 167Z" fill="#353133"/>
<path d="M121.719 56.4062H68.2812C61.7229 56.4062 56.4062 61.7229 56.4062 68.2812V121.719C56.4062 128.277 61.7229 133.594 68.2812 133.594H121.719C128.277 133.594 133.594 128.277 133.594 121.719V68.2812C133.594 61.7229 128.277 56.4062 121.719 56.4062Z" fill="#1B191A"/>
<path d="M130.625 127.656H77.1875C74.0381 127.656 71.0176 126.405 68.7906 124.178C66.5636 121.951 65.3125 118.931 65.3125 115.781V62.3439C65.3249 60.3078 65.8661 58.3099 66.883 56.5459C64.002 56.8784 61.3435 58.2572 59.4122 60.4206C57.4808 62.584 56.4111 65.3813 56.4062 68.2814V121.719C56.4062 124.868 57.6574 127.889 59.8844 130.116C62.1114 132.343 65.1318 133.594 68.2812 133.594H121.719C123.822 133.589 125.885 133.024 127.697 131.955C129.508 130.887 131.002 129.355 132.023 127.517C131.56 127.59 131.093 127.637 130.625 127.656Z" fill="black"/>
<path d="M95 29.6875C98.2792 29.6875 100.938 27.0292 100.938 23.75C100.938 20.4708 98.2792 17.8125 95 17.8125C91.7208 17.8125 89.0625 20.4708 89.0625 23.75C89.0625 27.0292 91.7208 29.6875 95 29.6875Z" fill="#EF2E2D"/>
<path d="M142.5 26.7188C145.779 26.7188 148.438 24.0604 148.438 20.7812C148.438 17.5021 145.779 14.8438 142.5 14.8438C139.221 14.8438 136.562 17.5021 136.562 20.7812C136.562 24.0604 139.221 26.7188 142.5 26.7188Z" fill="#EF2E2D"/>
<path d="M53.4375 20.7812C56.7167 20.7812 59.375 18.1229 59.375 14.8438C59.375 11.5646 56.7167 8.90625 53.4375 8.90625C50.1583 8.90625 47.5 11.5646 47.5 14.8438C47.5 18.1229 50.1583 20.7812 53.4375 20.7812Z" fill="#EF2E2D"/>
<path d="M118.75 181.094C122.029 181.094 124.688 178.435 124.688 175.156C124.688 171.877 122.029 169.219 118.75 169.219C115.471 169.219 112.812 171.877 112.812 175.156C112.812 178.435 115.471 181.094 118.75 181.094Z" fill="#EF2E2D"/>
<path d="M145.469 163.281C148.748 163.281 151.406 160.623 151.406 157.344C151.406 154.065 148.748 151.406 145.469 151.406C142.19 151.406 139.531 154.065 139.531 157.344C139.531 160.623 142.19 163.281 145.469 163.281Z" fill="#EF2E2D"/>
<path d="M53.4375 181.094C56.7167 181.094 59.375 178.435 59.375 175.156C59.375 171.877 56.7167 169.219 53.4375 169.219C50.1583 169.219 47.5 171.877 47.5 175.156C47.5 178.435 50.1583 181.094 53.4375 181.094Z" fill="#EF2E2D"/>
<path d="M164.91 62.0519C168.067 61.1666 169.909 57.8894 169.024 54.7319C168.139 51.5745 164.862 49.7325 161.704 50.6178C158.547 51.5031 156.705 54.7803 157.59 57.9377C158.475 61.0952 161.752 62.9371 164.91 62.0519Z" fill="#EF2E2D"/>
<path d="M176.818 136.264C179.975 135.379 181.817 132.101 180.932 128.944C180.046 125.786 176.769 123.944 173.612 124.83C170.454 125.715 168.612 128.992 169.498 132.15C170.383 135.307 173.66 137.149 176.818 136.264Z" fill="#EF2E2D"/>
<path d="M176.797 88.7638C179.954 87.8785 181.796 84.6013 180.911 81.4438C180.026 78.2864 176.748 76.4444 173.591 77.3297C170.434 78.215 168.592 81.4922 169.477 84.6497C170.362 87.8071 173.639 89.6491 176.797 88.7638Z" fill="#EF2E2D"/>
<path d="M32.4467 58.0337C33.3319 54.8763 31.49 51.599 28.3325 50.7137C25.1751 49.8285 21.8978 51.6704 21.0126 54.8279C20.1273 57.9853 21.9693 61.2626 25.1267 62.1478C28.2841 63.0331 31.5614 61.1911 32.4467 58.0337Z" fill="#EF2E2D"/>
<path d="M32.4751 143.78C33.1539 140.573 31.1044 137.423 27.8973 136.744C24.6903 136.065 21.5402 138.115 20.8614 141.322C20.1826 144.529 22.2322 147.679 25.4392 148.358C28.6463 149.037 31.7963 146.987 32.4751 143.78Z" fill="#EF2E2D"/>
<path d="M14.6092 106.875C15.7891 106.921 16.9559 106.615 17.9606 105.994C18.9652 105.374 19.7621 104.468 20.2494 103.393C20.7366 102.317 20.8921 101.121 20.696 99.9563C20.4999 98.7919 19.9611 97.7124 19.1484 96.8558L17.8125 97.9691L19.1484 96.8558C18.4786 96.1498 17.6455 95.6192 16.7224 95.3108C15.7993 95.0025 14.8146 94.9257 13.8549 95.0873C12.8952 95.249 11.9899 95.6441 11.2188 96.2378C10.4476 96.8315 9.83425 97.6057 9.43263 98.4922C9.03102 99.3787 8.85347 100.35 8.91562 101.322C8.97778 102.293 9.27772 103.234 9.78905 104.062C10.3004 104.89 11.0074 105.58 11.848 106.07C12.6885 106.561 13.6367 106.837 14.6092 106.875Z" fill="#EF2E2D"/>
<path d="M106.875 86.0938H83.125C79.8458 86.0938 77.1875 88.7521 77.1875 92.0312V115.781C77.1875 119.06 79.8458 121.719 83.125 121.719H106.875C110.154 121.719 112.812 119.06 112.812 115.781V92.0312C112.812 88.7521 110.154 86.0938 106.875 86.0938Z" fill="black"/>
<path d="M83.125 109.844V86.0938C81.5517 86.0984 80.0442 86.7255 78.9317 87.838C77.8193 88.9505 77.1922 90.458 77.1875 92.0312V115.781C77.1922 117.355 77.8193 118.862 78.9317 119.975C80.0442 121.087 81.5517 121.714 83.125 121.719H106.875C108.448 121.714 109.956 121.087 111.068 119.975C112.181 118.862 112.808 117.355 112.812 115.781H89.0625C87.4892 115.777 85.9817 115.149 84.8692 114.037C83.7568 112.925 83.1297 111.417 83.125 109.844Z" fill="#1B191A"/>
<path d="M96.6494 106.612C99.8069 105.727 101.649 102.45 100.764 99.2925C99.8783 96.135 96.601 94.2931 93.4436 95.1783C90.2862 96.0636 88.4442 99.3409 89.3295 102.498C90.2147 105.656 93.492 107.498 96.6494 106.612Z" fill="#F1F2F2"/>
<path d="M80.1562 32.6562H86.0938V38.5938H80.1562V32.6562Z" fill="#F2F2F2"/>
<path d="M157.344 103.906H163.281V109.844H157.344V103.906Z" fill="#F2F2F2"/>
<path d="M103.906 151.406H109.844V157.344H103.906V151.406Z" fill="#F2F2F2"/>
<path d="M80.1562 160.312H86.0938V166.25H80.1562V160.312Z" fill="#F2F2F2"/>
<path d="M32.6562 92.0312H38.5938V97.9688H32.6562V92.0312Z" fill="#F2F2F2"/>
<path d="M103.906 32.6562H109.844V38.5938H103.906V32.6562Z" fill="#F2F2F2"/>
<path d="M151.406 80.1562H157.344V86.0938H151.406V80.1562Z" fill="#F2F2F2"/>
<path d="M136.562 50.4688H142.5V56.4062H136.562V50.4688Z" fill="#F2F2F2"/>
<path d="M47.5 50.4688H53.4375V56.4062H47.5V50.4688Z" fill="#F2F2F2"/>
<path d="M136.562 133.594H142.5V139.531H136.562V133.594Z" fill="#F2F2F2"/>
<path d="M47.5 133.594H53.4375V139.531H47.5V133.594Z" fill="#F2F2F2"/>
<path d="M94.6497 92.0317C92.5734 92.0987 90.5862 92.8908 89.0332 94.2705C87.4801 95.6501 86.4594 97.5302 86.1483 99.5841C85.8371 101.638 86.2552 103.736 87.3299 105.514C88.4046 107.292 90.068 108.637 92.0312 109.316V115.782H97.9687V109.295C99.9801 108.59 101.671 107.187 102.734 105.339C103.797 103.492 104.16 101.324 103.757 99.2313C103.355 97.1385 102.214 95.26 100.542 93.9383C98.8701 92.6167 96.7789 91.94 94.6497 92.0317ZM97.9687 100.822C97.9843 101.212 97.9228 101.601 97.788 101.967C97.6531 102.333 97.4475 102.668 97.1828 102.955C96.9182 103.241 96.5996 103.473 96.2455 103.636C95.8913 103.799 95.5084 103.891 95.1187 103.907C94.7285 103.922 94.3391 103.86 93.9728 103.724C93.6065 103.589 93.2706 103.383 92.9842 103.117C92.5527 102.719 92.249 102.201 92.1116 101.63C91.9742 101.059 92.0092 100.46 92.2123 99.9091C92.4154 99.358 92.7774 98.8795 93.2525 98.5342C93.7276 98.1889 94.2944 97.9922 94.8812 97.9692H95C95.7672 97.9685 96.5049 98.265 97.0583 98.7963C97.6118 99.3276 97.9381 100.053 97.9687 100.819V100.822Z" fill="#F2F2F2"/>
<path d="M109.844 83.6712V80.1562C109.844 76.2194 108.28 72.4439 105.496 69.6601C102.712 66.8764 98.9368 65.3125 95 65.3125C91.0632 65.3125 87.2876 66.8764 84.5039 69.6601C81.7201 72.4439 80.1562 76.2194 80.1562 80.1562V83.6712C78.4257 84.2831 76.9265 85.4146 75.8637 86.911C74.8009 88.4075 74.2264 90.1958 74.2188 92.0312V115.781C74.2188 118.143 75.1571 120.409 76.8273 122.079C78.4976 123.749 80.7629 124.688 83.125 124.688H106.875C109.237 124.688 111.502 123.749 113.173 122.079C114.843 120.409 115.781 118.143 115.781 115.781V92.0312C115.774 90.1958 115.199 88.4075 114.136 86.911C113.073 85.4146 111.574 84.2831 109.844 83.6712ZM86.0938 80.1562C86.0938 77.7942 87.0321 75.5288 88.7023 73.8586C90.3726 72.1883 92.6379 71.25 95 71.25C97.3621 71.25 99.6274 72.1883 101.298 73.8586C102.968 75.5288 103.906 77.7942 103.906 80.1562V83.125H86.0938V80.1562ZM109.844 115.781C109.844 116.569 109.531 117.324 108.974 117.88C108.417 118.437 107.662 118.75 106.875 118.75H83.125C82.3376 118.75 81.5825 118.437 81.0258 117.88C80.469 117.324 80.1562 116.569 80.1562 115.781V92.0312C80.1562 91.2439 80.469 90.4888 81.0258 89.932C81.5825 89.3753 82.3376 89.0625 83.125 89.0625H106.875C107.662 89.0625 108.417 89.3753 108.974 89.932C109.531 90.4888 109.844 91.2439 109.844 92.0312V115.781Z" fill="#F2F2F2"/>
<path d="M175.156 121.719C173.834 121.724 172.529 122.028 171.341 122.609L164.513 115.781H136.562V109.844H151.406V103.906H136.562V97.9688H152.107L168.99 89.5256C170.47 90.9429 172.394 91.8055 174.436 91.9673C176.479 92.1292 178.515 91.5804 180.199 90.4138C181.884 89.2472 183.113 87.5345 183.68 85.5655C184.247 83.5965 184.116 81.4921 183.31 79.6085C182.503 77.7249 181.071 76.1778 179.255 75.2289C177.439 74.28 175.351 73.9876 173.344 74.4012C171.337 74.8149 169.535 75.9092 168.242 77.4989C166.95 79.0886 166.246 81.076 166.25 83.125C166.264 83.4862 166.301 83.8461 166.36 84.2027L150.706 92.0313H136.562V86.0938H145.469V80.1563H136.562V74.2188H149.667L159.463 64.4219C160.652 65.0033 161.958 65.3078 163.281 65.3125C165.043 65.3125 166.765 64.7902 168.229 63.8115C169.694 62.8329 170.835 61.4419 171.51 59.8145C172.184 58.1871 172.36 56.3964 172.016 54.6687C171.673 52.9411 170.824 51.3541 169.579 50.1086C168.333 48.863 166.746 48.0148 165.019 47.6711C163.291 47.3275 161.5 47.5039 159.873 48.178C158.246 48.852 156.855 49.9936 155.876 51.4582C154.897 52.9228 154.375 54.6448 154.375 56.4063C154.38 57.7288 154.685 59.033 155.266 60.2211L147.208 68.2813H136.562C136.558 64.3459 134.992 60.5731 132.21 57.7903C129.427 55.0076 125.654 53.4422 121.719 53.4375V45.7603L138.685 28.7969C139.873 29.3779 141.177 29.6824 142.5 29.6875C144.261 29.6875 145.983 29.1652 147.448 28.1865C148.913 27.2079 150.054 25.8169 150.728 24.1895C151.402 22.5621 151.579 20.7714 151.235 19.0437C150.891 17.3161 150.043 15.7291 148.798 14.4836C147.552 13.238 145.965 12.3898 144.238 12.0461C142.51 11.7025 140.719 11.8789 139.092 12.553C137.464 13.227 136.073 14.3686 135.095 15.8332C134.116 17.2978 133.594 19.0198 133.594 20.7813C133.599 22.1038 133.903 23.408 134.484 24.5961L115.781 43.2992V53.4375H109.844V44.5313H103.906V53.4375H97.9688V32.11C99.9495 31.4097 101.619 30.0317 102.682 28.2195C103.745 26.4074 104.133 24.2777 103.778 22.207C103.423 20.1364 102.347 18.2579 100.741 16.9038C99.1343 15.5496 97.101 14.8069 95 14.8069C92.8991 14.8069 90.8657 15.5496 89.2595 16.9038C87.6532 18.2579 86.5773 20.1364 86.222 22.207C85.8667 24.2777 86.2549 26.4074 87.318 28.2195C88.381 30.0317 90.0505 31.4097 92.0313 32.11V53.4375H86.0938V44.5313H80.1563V53.4375H74.2188V31.4272L61.4531 18.6616C62.0346 17.4726 62.3391 16.1673 62.3438 14.8438C62.3438 13.0823 61.8214 11.3603 60.8428 9.89571C59.8642 8.43108 58.4732 7.28954 56.8458 6.61545C55.2184 5.94136 53.4276 5.76499 51.7 6.10864C49.9723 6.45228 48.3854 7.30052 47.1398 8.54608C45.8943 9.79165 45.046 11.3786 44.7024 13.1062C44.3587 14.8339 44.5351 16.6246 45.2092 18.252C45.8833 19.8794 47.0248 21.2704 48.4895 22.249C49.9541 23.2277 51.676 23.75 53.4375 23.75C54.76 23.7449 56.0643 23.4404 57.2523 22.8594L68.2813 33.8853V53.4375C64.3459 53.4422 60.5731 55.0076 57.7903 57.7903C55.0076 60.5731 53.4422 64.3459 53.4375 68.2813H42.7916L34.7344 60.2211C35.3154 59.033 35.6199 57.7288 35.625 56.4063C35.625 54.6448 35.1027 52.9228 34.124 51.4582C33.1454 49.9936 31.7544 48.852 30.127 48.178C28.4996 47.5039 26.7089 47.3275 24.9812 47.6711C23.2536 48.0148 21.6666 48.863 20.4211 50.1086C19.1755 51.3541 18.3273 52.9411 17.9836 54.6687C17.64 56.3964 17.8164 58.1871 18.4905 59.8145C19.1645 61.4419 20.3061 62.8329 21.7707 63.8115C23.2353 64.7902 24.9573 65.3125 26.7188 65.3125C28.0413 65.3074 29.3455 65.0029 30.5336 64.4219L40.3305 74.2188H53.4375V80.1563H34.5503L19 93.1119C17.7256 92.4127 16.2973 92.0413 14.8438 92.0313C13.0823 92.0313 11.3603 92.5536 9.89571 93.5322C8.43108 94.5109 7.28954 95.9018 6.61545 97.5292C5.94136 99.1566 5.76499 100.947 6.10864 102.675C6.45228 104.403 7.30052 105.99 8.54608 107.235C9.79165 108.481 11.3786 109.329 13.1062 109.673C14.8339 110.016 16.6246 109.84 18.252 109.166C19.8794 108.492 21.2704 107.35 22.249 105.886C23.2277 104.421 23.75 102.699 23.75 100.938C23.752 99.746 23.5127 98.5665 23.0464 97.47L36.6997 86.0938H53.4375V92.0313H44.5313V97.9688H53.4375V103.906H26.7188V109.844H53.4375V115.781H37.0055L25.0414 133.724C24.6147 133.649 24.1831 133.605 23.75 133.594C21.6846 133.575 19.6758 134.268 18.0612 135.556C16.4467 136.844 15.3249 138.649 14.8847 140.667C14.4445 142.685 14.7126 144.793 15.6439 146.636C16.5753 148.48 18.1131 149.946 19.9987 150.789C21.8843 151.632 24.0026 151.8 25.9975 151.265C27.9923 150.73 29.742 149.524 30.9522 147.85C32.1624 146.176 32.7593 144.137 32.6425 142.074C32.5257 140.012 31.7024 138.053 30.3109 136.527L40.182 121.719H53.4375C53.4422 125.654 55.0076 129.427 57.7903 132.21C60.5731 134.992 64.3459 136.558 68.2813 136.562V156.115L57.2523 167.141C56.0643 166.56 54.76 166.255 53.4375 166.25C51.676 166.25 49.9541 166.772 48.4895 167.751C47.0248 168.73 45.8833 170.121 45.2092 171.748C44.5351 173.375 44.3587 175.166 44.7024 176.894C45.046 178.621 45.8943 180.208 47.1398 181.454C48.3854 182.699 49.9723 183.548 51.7 183.891C53.4276 184.235 55.2184 184.059 56.8458 183.385C58.4732 182.71 59.8642 181.569 60.8428 180.104C61.8214 178.64 62.3438 176.918 62.3438 175.156C62.3386 173.834 62.0342 172.529 61.4531 171.341L74.2188 158.576V136.562H80.1563V154.375H86.0938V136.562H92.0313V161.957L110.063 173.238C109.579 175.318 109.847 177.503 110.819 179.404C111.792 181.306 113.406 182.801 115.376 183.625C117.346 184.45 119.545 184.55 121.581 183.908C123.618 183.266 125.362 181.923 126.503 180.118C127.644 178.313 128.109 176.162 127.816 174.046C127.522 171.931 126.489 169.988 124.899 168.562C123.309 167.136 121.266 166.319 119.131 166.256C116.996 166.193 114.908 166.888 113.237 168.218L97.9688 158.668V136.562H103.906V145.469H109.844V136.562H115.781V160.312H137.109C137.809 162.293 139.187 163.963 140.999 165.026C142.811 166.089 144.941 166.477 147.012 166.122C149.082 165.766 150.961 164.691 152.315 163.084C153.669 161.478 154.412 159.445 154.412 157.344C154.412 155.243 153.669 153.21 152.315 151.603C150.961 149.997 149.082 148.921 147.012 148.566C144.941 148.21 142.811 148.599 140.999 149.662C139.187 150.725 137.809 152.394 137.109 154.375H121.719V136.562C125.654 136.558 129.427 134.992 132.21 132.21C134.992 129.427 136.558 125.654 136.562 121.719H162.052L167.141 126.81C166.56 127.998 166.255 129.302 166.25 130.625C166.25 132.386 166.772 134.108 167.751 135.573C168.73 137.038 170.121 138.179 171.748 138.853C173.375 139.527 175.166 139.704 176.894 139.36C178.621 139.016 180.208 138.168 181.454 136.923C182.699 135.677 183.548 134.09 183.891 132.363C184.235 130.635 184.059 128.844 183.385 127.217C182.71 125.589 181.569 124.198 180.104 123.22C178.64 122.241 176.918 121.719 175.156 121.719ZM175.156 80.1563C175.743 80.1563 176.317 80.3304 176.806 80.6566C177.294 80.9828 177.674 81.4464 177.899 81.9889C178.124 82.5314 178.183 83.1283 178.068 83.7042C177.953 84.2801 177.671 84.809 177.255 85.2242C176.84 85.6394 176.311 85.9222 175.735 86.0367C175.16 86.1513 174.563 86.0925 174.02 85.8678C173.478 85.6431 173.014 85.2626 172.688 84.7744C172.362 84.2861 172.188 83.7122 172.188 83.125C172.188 82.3376 172.5 81.5825 173.057 81.0258C173.614 80.469 174.369 80.1563 175.156 80.1563ZM163.281 53.4375C163.868 53.4375 164.442 53.6116 164.931 53.9378C165.419 54.264 165.799 54.7277 166.024 55.2702C166.249 55.8126 166.308 56.4096 166.193 56.9854C166.078 57.5613 165.796 58.0903 165.38 58.5055C164.965 58.9207 164.436 59.2034 163.86 59.318C163.285 59.4325 162.688 59.3737 162.145 59.149C161.603 58.9243 161.139 58.5438 160.813 58.0556C160.487 57.5674 160.312 56.9934 160.312 56.4063C160.312 55.6189 160.625 54.8638 161.182 54.307C161.739 53.7503 162.494 53.4375 163.281 53.4375ZM142.5 17.8125C143.087 17.8125 143.661 17.9866 144.149 18.3128C144.638 18.639 145.018 19.1027 145.243 19.6452C145.467 20.1876 145.526 20.7845 145.412 21.3604C145.297 21.9363 145.014 22.4653 144.599 22.8805C144.184 23.2957 143.655 23.5784 143.079 23.693C142.503 23.8075 141.906 23.7487 141.364 23.524C140.821 23.2993 140.358 22.9188 140.032 22.4306C139.705 21.9424 139.531 21.3684 139.531 20.7813C139.531 19.9939 139.844 19.2388 140.401 18.682C140.958 18.1253 141.713 17.8125 142.5 17.8125ZM95 20.7813C95.5872 20.7813 96.1611 20.9554 96.6494 21.2816C97.1376 21.6078 97.5181 22.0714 97.7428 22.6139C97.9675 23.1564 98.0263 23.7533 97.9117 24.3292C97.7972 24.9051 97.5144 25.434 97.0992 25.8492C96.684 26.2644 96.1551 26.5472 95.5792 26.6617C95.0033 26.7763 94.4064 26.7175 93.8639 26.4928C93.3214 26.2681 92.8578 25.8876 92.5316 25.3994C92.2054 24.9111 92.0313 24.3372 92.0313 23.75C92.0313 22.9626 92.344 22.2075 92.9008 21.6508C93.4575 21.094 94.2126 20.7813 95 20.7813ZM50.4688 14.8438C50.4688 14.2566 50.6429 13.6826 50.9691 13.1944C51.2953 12.7062 51.7589 12.3257 52.3014 12.101C52.8439 11.8763 53.4408 11.8175 54.0167 11.932C54.5926 12.0466 55.1215 12.3293 55.5367 12.7445C55.9519 13.1597 56.2347 13.6887 56.3492 14.2646C56.4638 14.8405 56.405 15.4374 56.1803 15.9798C55.9556 16.5223 55.5751 16.986 55.0869 17.3122C54.5986 17.6384 54.0247 17.8125 53.4375 17.8125C52.6501 17.8125 51.895 17.4997 51.3383 16.943C50.7815 16.3862 50.4688 15.6311 50.4688 14.8438ZM23.75 56.4063C23.75 55.8191 23.9241 55.2451 24.2503 54.7569C24.5765 54.2687 25.0402 53.8882 25.5827 53.6635C26.1251 53.4388 26.722 53.38 27.2979 53.4945C27.8738 53.6091 28.4028 53.8918 28.818 54.307C29.2332 54.7222 29.5159 55.2512 29.6305 55.8271C29.745 56.403 29.6862 56.9999 29.4615 57.5423C29.2368 58.0848 28.8563 58.5485 28.3681 58.8747C27.8799 59.2009 27.3059 59.375 26.7188 59.375C25.9314 59.375 25.1763 59.0622 24.6195 58.5055C24.0628 57.9487 23.75 57.1936 23.75 56.4063ZM14.8438 103.906C14.2566 103.906 13.6826 103.732 13.1944 103.406C12.7062 103.08 12.3257 102.616 12.101 102.074C11.8763 101.531 11.8175 100.934 11.932 100.358C12.0466 99.7824 12.3293 99.2535 12.7445 98.8383C13.1597 98.4231 13.6887 98.1404 14.2646 98.0258C14.8405 97.9112 15.4374 97.97 15.9798 98.1947C16.5223 98.4194 16.986 98.7999 17.3122 99.2882C17.6384 99.7764 17.8125 100.35 17.8125 100.938C17.8125 101.725 17.4997 102.48 16.943 103.037C16.3862 103.593 15.6311 103.906 14.8438 103.906ZM23.75 145.469C23.1628 145.469 22.5889 145.295 22.1007 144.968C21.6124 144.642 21.2319 144.179 21.0072 143.636C20.7825 143.094 20.7237 142.497 20.8383 141.921C20.9528 141.345 21.2356 140.816 21.6508 140.401C22.066 139.986 22.5949 139.703 23.1708 139.588C23.7467 139.474 24.3436 139.533 24.8861 139.757C25.4286 139.982 25.8922 140.362 26.2184 140.851C26.5446 141.339 26.7188 141.913 26.7188 142.5C26.7188 143.287 26.406 144.042 25.8492 144.599C25.2925 145.156 24.5374 145.469 23.75 145.469ZM53.4375 178.125C52.8503 178.125 52.2764 177.951 51.7882 177.625C51.2999 177.298 50.9194 176.835 50.6947 176.292C50.47 175.75 50.4112 175.153 50.5258 174.577C50.6403 174.001 50.9231 173.472 51.3383 173.057C51.7535 172.642 52.2824 172.359 52.8583 172.245C53.4342 172.13 54.0311 172.189 54.5736 172.413C55.1161 172.638 55.5797 173.019 55.9059 173.507C56.2321 173.995 56.4063 174.569 56.4063 175.156C56.4063 175.944 56.0935 176.699 55.5367 177.255C54.98 177.812 54.2249 178.125 53.4375 178.125ZM118.75 172.188C119.337 172.188 119.911 172.362 120.399 172.688C120.888 173.014 121.268 173.478 121.493 174.02C121.717 174.563 121.776 175.16 121.662 175.735C121.547 176.311 121.264 176.84 120.849 177.255C120.434 177.671 119.905 177.953 119.329 178.068C118.753 178.183 118.156 178.124 117.614 177.899C117.071 177.674 116.608 177.294 116.282 176.806C115.955 176.317 115.781 175.743 115.781 175.156C115.781 174.369 116.094 173.614 116.651 173.057C117.208 172.5 117.963 172.188 118.75 172.188ZM145.469 154.375C146.056 154.375 146.63 154.549 147.118 154.875C147.606 155.202 147.987 155.665 148.212 156.208C148.436 156.75 148.495 157.347 148.38 157.923C148.266 158.499 147.983 159.028 147.568 159.443C147.153 159.858 146.624 160.141 146.048 160.255C145.472 160.37 144.875 160.311 144.333 160.087C143.79 159.862 143.327 159.481 143 158.993C142.674 158.505 142.5 157.931 142.5 157.344C142.5 156.556 142.813 155.801 143.37 155.245C143.926 154.688 144.681 154.375 145.469 154.375ZM130.625 121.719C130.625 124.081 129.687 126.346 128.016 128.016C126.346 129.687 124.081 130.625 121.719 130.625H68.2813C65.9192 130.625 63.6538 129.687 61.9836 128.016C60.3133 126.346 59.375 124.081 59.375 121.719V68.2813C59.375 65.9192 60.3133 63.6538 61.9836 61.9836C63.6538 60.3133 65.9192 59.375 68.2813 59.375H121.719C124.081 59.375 126.346 60.3133 128.016 61.9836C129.687 63.6538 130.625 65.9192 130.625 68.2813V121.719ZM175.156 133.594C174.569 133.594 173.995 133.42 173.507 133.093C173.019 132.767 172.638 132.304 172.413 131.761C172.189 131.219 172.13 130.622 172.245 130.046C172.359 129.47 172.642 128.941 173.057 128.526C173.472 128.111 174.001 127.828 174.577 127.713C175.153 127.599 175.75 127.658 176.292 127.882C176.835 128.107 177.298 128.487 177.625 128.976C177.951 129.464 178.125 130.038 178.125 130.625C178.125 131.412 177.812 132.167 177.255 132.724C176.699 133.281 175.944 133.594 175.156 133.594Z" fill="#F2F2F2"/>
</svg>
