<svg width="250" height="290" xmlns="http://www.w3.org/2000/svg" viewBox="0 0 400 400">
  <!-- Background digital elements -->
  <circle cx="350" cy="100" r="5" fill="#333333" opacity="0.2"/>
  <rect x="330" y="80" width="10" height="10" fill="#333333" opacity="0.2"/>
  <rect x="360" y="120" width="8" height="8" fill="#333333" opacity="0.2"/>
  
  <!-- Robot head -->
  <rect x="150" y="80" width="100" height="90" rx="15" fill="white" stroke="#333333" stroke-width="3"/>
  
  <!-- Robot eyes -->
  <circle cx="180" cy="120" r="15" fill="#ff4444"/>
  <circle cx="220" cy="120" r="15" fill="#ff4444"/>
  
  <!-- Robot antenna -->
  <line x1="200" y1="80" x2="200" y2="60" stroke="#333333" stroke-width="3"/>
  <circle cx="200" cy="55" r="6" fill="#ff4444"/>
  
  <!-- Robot body -->
  <rect x="160" y="170" width="80" height="60" rx="10" fill="white" stroke="#333333" stroke-width="3"/>
  
  <!-- Robot arms -->
  <path d="M160 180 L120 200 L120 220" fill="none" stroke="#333333" stroke-width="3" stroke-linecap="round"/>
  <path d="M240 180 L280 200 L280 220" fill="none" stroke="#333333" stroke-width="3" stroke-linecap="round"/>
  
  <!-- Laptop -->
  <path d="M120 220 L280 220 L300 280 L100 280 Z" fill="#ff4444" stroke="#dd2222" stroke-width="3"/>
  <line x1="120" y1="250" x2="280" y2="250" stroke="#dd2222" stroke-width="2"/>
  
  <!-- Digital elements around robot -->
  <rect x="300" y="150" width="12" height="12" fill="#333333" opacity="0.2"/>
  <rect x="320" y="180" width="10" height="10" fill="#333333" opacity="0.2"/>
  <rect x="90" y="150" width="12" height="12" fill="#333333" opacity="0.2"/>
  <rect x="70" y="180" width="10" height="10" fill="#333333" opacity="0.2"/>
  
  <!-- Additional tech details -->
  <circle cx="200" cy="200" r="8" fill="#333333"/>
  <rect x="180" y="190" width="40" height="4" fill="#333333"/>
</svg>
