<?xml version="1.0" encoding="utf-8"?>
<!-- Generator: Adobe Illustrator 24.2.1, SVG Export Plug-In . SVG Version: 6.00 Build 0)  -->
<svg version="1.1" id="Layer_1" xmlns="http://www.w3.org/2000/svg" xmlns:xlink="http://www.w3.org/1999/xlink" x="0px" y="0px"
	 viewBox="0 0 1440 790" style="enable-background:new 0 0 1440 790;" xml:space="preserve">
<style type="text/css">
	.st0{clip-path:url(#SVGID_2_);}
	.st1{clip-path:url(#SVGID_4_);}
	.st2{fill:#EF2E2D;}
	.st3{opacity:0.31;}
	.st4{opacity:0.69;}
	.st5{opacity:0.69;fill:#ED1312;enable-background:new    ;}
	.st6{opacity:0.69;fill:#D91E1D;enable-background:new    ;}
	.st7{opacity:0.69;fill:#AD0D0C;enable-background:new    ;}
</style>
<g>
	<defs>
		<rect id="SVGID_1_" width="1440" height="790"/>
	</defs>
	<clipPath id="SVGID_2_">
		<use xlink:href="#SVGID_1_"  style="overflow:visible;"/>
	</clipPath>
	<g class="st0">
		<defs>
			<rect id="SVGID_3_" x="-358" y="-208" width="2156" height="998"/>
		</defs>
		<clipPath id="SVGID_4_">
			<use xlink:href="#SVGID_3_"  style="overflow:visible;"/>
		</clipPath>
		<g class="st1">
			<path class="st2" d="M1440,0H0v790h1440V0z"/>
			<g class="st3">
				<g class="st4">
					<path class="st5" d="M337.7,845.3c3-44.1-5.6-78.2-26.3-104.2c-10-12.4-22.1-22.4-34-31.9c-7.6-6.1-15.6-12.6-22.7-19.5
						c-20.3-19.9-32.7-45.4-34.9-71.9c-0.8-10.8-0.1-22,0.7-32.6c1.2-17.6,2.6-35.7-3.4-53.5c-4.6-13.8-13.8-23.6-26.6-28.5
						c-16.6-6.4-38.6-3.7-57.3,7c-36,20.6-74.9,70.5-48.2,117.3c11.2,19.5,30,30.6,48.4,41.2c8.2,4.8,16.6,9.7,24.3,15.3
						c24.2,17.9,44.6,40.7,60.9,67.8c16.8,28,28.4,60,34.2,93.6h3.7c-5.9-34.1-17.7-67-34.8-95.4c-16.5-27.6-37.3-50.8-61.8-68.9
						c-7.8-5.7-16.4-10.8-24.6-15.6c-17.9-10.4-36.4-21.1-47.1-39.8C62.9,581,100.4,533,135.1,513.2c17.7-10.1,38.6-12.7,54.3-6.8
						c11.7,4.5,20.2,13.5,24.4,26.2c5.7,17.1,4.5,34.1,3.1,52.1c-0.8,10.9-1.6,22.1-0.7,33.2c2.2,27.3,15,53.8,36,74.2
						c7.2,7.1,15.3,13.5,22.9,19.8c11.7,9.4,23.7,19.2,33.4,31.4c20.2,25.2,28.5,58.8,25.5,101.9h3.5V845.3z"/>
					<path class="st5" d="M1556.1,845.3c0.8-12.6-2.6-24.7-7.2-38.8c-4.8-11.2-5.9-12.7-9.7-17.9c-0.8-1.1-1.6-2.2-2.7-3.7
						c-0.1-0.1-0.1-0.3-0.3-0.4l-1.2-1c-1.5-1.2-1.5-1.2-4.5-3.8l-1.5-1.2c-0.1-0.1-0.3-0.1-0.4-0.3c-31.1-14.6-95.6-10.5-126.5,15
						c-0.1,0.1-0.1,0.1-0.3,0.3c-14.3,18.8-14.1,33.7-13.8,49.4c0,0.7,0,1.5,0,2.2h3.7c0-0.8,0-1.5,0-2.3
						c-0.3-15.7-0.5-29.2,13-47.1c29.9-24.6,92.1-28.4,122.3-14.5l1.4,1.1c3.1,2.6,3.1,2.6,4.6,3.8l1.1,0.8c1,1.4,1.9,2.6,2.6,3.5
						c3.7,4.9,4.6,6.3,9.3,16.9c4.5,13.6,7.8,25.4,7,37.5h3.3V845.3z"/>
					<path class="st5" d="M1077.1,817.2c-11.2-8.7-20.5-20.6-29.6-31.9c-2.6-3.1-5.1-6.4-7.5-9.4c-19.5-23.7-39.7-45.3-64.1-71
						c-10.8-11.3-21.8-22.8-32.6-33.8c-6.3-6.4-12.4-12.8-18.7-19.2c-1.5-1.6-3.3-3.4-4.9-5.3c-14.9-16-35.2-37.9-58.3-28.2
						c-21.1,8.9-12.6,41.2-9.8,51.8c7.4,27.8,19,58.4,34.5,90.7c4.9,10.2,10,20.3,14.9,30.6c8.6,17.6,17.6,35.9,26.1,54h4
						c-0.1-0.3-0.3-0.5-0.3-0.7c-8.6-18.4-17.6-37-26.5-54.9c-5-10.1-10-20.3-14.9-30.6c-15.4-32.1-27-62.4-34.4-90.1
						c-2.6-9.8-10.5-40,7.6-47.6c20.7-8.7,40.1,12.1,54.2,27.3c1.8,1.9,3.4,3.7,5,5.3c6.1,6.4,12.4,12.8,18.7,19.2
						c10.8,11.1,21.8,22.4,32.6,33.7c24.4,25.7,44.5,47.2,64,70.8c2.4,3,5,6.1,7.5,9.4c9.1,11.6,18.7,23.5,30.2,32.6
						c13.4,10.5,26.2,18.7,38.8,25.2h8.2C1107.3,838.5,1092.5,829.4,1077.1,817.2z"/>
					<path class="st5" d="M-189.6,803.2c-4.9-8-10.4-17.1-15.8-27.4c-14.1-29.9-20.1-58.9-25.9-87.1c-2.6-12.6-5-24.3-8.1-35.6
						c-3.8-15.4-7.2-27.4-10.2-38.2c-5.9-20.5-10.5-36.7-14.9-64.8c-7.9-70.5,18.7-93.5,55.7-125.1c20.3-17.5,43.4-37.3,65.1-68.9
						c3.3-5.2,6.6-10.2,9.7-15.4c28.7-45.6,55.7-88.7,129.2-122.1c52.7-22,86.9-30.6,111.7-37c54.6-13.9,61.5-15.7,110.5-119.4
						c5.3-11.1,9.8-20.3,13.8-28.7c13.1-26.9,20.9-43.1,33.7-75.2c38.9-101,25.5-127.2-1.1-179.4c-1.9-3.5-4-7.5-5.9-11.5h-4.1
						c2.3,4.6,4.6,9.1,6.8,13.4c26.2,51.3,39.3,77,1,176.4c-12.7,31.9-20.6,48-33.6,74.9c-4,8.3-8.5,17.6-13.8,28.7
						C166,163,160.4,164.3,106.1,178.2c-25,6.4-59.4,15.1-112.3,37.1c-74.8,33.8-102.1,77.4-130.9,123.5c-3.1,5-6.4,10.2-9.7,15.3
						c-21.4,31.2-44.2,50.9-64.4,68.1c-36.3,31.1-64.9,55.7-56.9,128.3c4.4,28.4,9,44.6,14.9,65.4c3,10.6,6.4,22.6,10.2,38.1
						c3,11.2,5.5,23.1,8,35.5c5.6,27,12,57.6,26.2,87.9c5.5,10.5,11.1,19.5,16,27.7c9,14.6,16.2,26.7,19.5,40.3h3.7
						C-172.6,831-180.3,818.4-189.6,803.2z"/>
					<path class="st5" d="M810.6,745.4c-45.3-68.9-49.8-92.4-54.6-117.2c-4-21-8.2-42.7-35.9-91.4l-0.8-1.4
						c-7.6-13.4-15.8-27-20.5-41.8c-4-12.4-4.5-25.7,1.6-37.5c3.3-6.4,7.5-12.6,13.8-16.4c4.2-2.6,8.7-4.8,13.4-6.3
						c9.7-3.1,20.1-3.4,30-1.9c12.3,1.8,24.2,6,35.6,10.9c14.7,6.3,28.9,13.9,42.8,21.8c2.7,1.6,5.6,3.1,8.3,4.8
						c116.3,67.7,140.8,110.4,160.5,144.6c16.9,29.5,30.3,52.7,94.3,78.2c53.9,19.8,70.3,4.2,89.1-13.8c9.1-8.7,18.7-17.9,33.6-23.9
						c12-3.5,27.6-3.4,44.1-3.3c49.8,0.4,111.9,1.1,139.9-94c23.2-91.4,10-141.1-0.7-180.9c-10.4-39.2-18.6-70.1,8.9-125.3
						c4.8-8.9,7.9-14.5,10.8-19.4c4.2-7.5,7.6-13.5,14.6-27.4c14.6-32.1,16.8-59.1,6.6-80.4c-9.4-19.5-28.7-33.2-57.3-40.4
						c-0.1,0-0.3,0-0.4-0.1c-13-1.9-21.8-2.6-28.4-3.1c-12.4-1-16.6-1.4-28.8-8.2c-17.2-17.5-13.6-35.1-6.6-70.1
						c1.4-6.5,2.9-13.6,4.2-21.4c1.6-9,3-17.3,4.2-25.1c12.6-76.4,15.2-92.4,119.5-114.2c27.4-6,49.4-12,68.9-17.3
						c39.3-10.8,69.3-19,116.9-19v-7.5c-48.4,0-78.9,8.3-118.8,19.2c-19.4,5.3-41.2,11.3-68.5,17.2
						c-109.2,22.9-112.3,41.6-125.1,120.1c-1.2,7.8-2.6,16.1-4.2,25c-1.4,7.6-2.9,14.7-4.2,21.3c-7.2,35.3-11.6,56.8,8.9,77.1
						c0.3,0.3,0.5,0.4,0.8,0.5c13.8,7.9,19.1,8.3,32.2,9.4c6.3,0.5,15,1.2,27.7,3.1c26.3,6.7,44.1,19,52.4,36.4
						c9.3,19.2,7,44.2-6.7,74.1c-6.8,13.6-10.1,19.5-14.3,26.9c-2.9,4.9-6,10.5-10.9,19.6c-28.8,57.7-19.9,91.4-9.5,130.4
						c10.9,41.2,23.3,87.7,0.7,177.2c-26.5,89.6-83,89.1-132.9,88.7c-17.1-0.1-33.3-0.3-46.5,3.7c-16.4,6.7-26.9,16.6-36.2,25.4
						c-17.9,17.1-31.9,30.4-81.5,12.3c-61.5-24.6-73.8-45.7-90.6-74.9c-20.2-35.1-45.2-78.6-163.2-147.4
						c-14.5-8.5-29.1-16.5-44.3-23.5c-12-5.6-24.6-10.5-37.5-13.5c-10.5-2.3-21.4-3.3-32.2-1.4c-4.9,0.8-9.7,2.3-14.3,4.2
						c-7.5,3.3-13.8,7.4-19,13.8c-4.8,5.9-8.5,12.4-10.5,19.6c-3.8,13.5-1.1,27.6,4,40.4c4.9,12.8,11.9,24.8,18.7,36.7l0.8,1.4
						c27.2,47.8,31.1,68.8,35.1,89.2c4.9,25.7,9.6,49.8,55.7,119.9c27.3,41.1,37.2,62.1,52.3,95.9h7.9
						C848.8,809.4,839,788.3,810.6,745.4z"/>
					<path class="st5" d="M749.2,734c-17.6-22.1-27.3-34.4-34.5-72.7l-0.7-4.5c-6.1-38.5-8.6-54.4-31.7-91.6c-2-3.1-4.1-6.3-6.1-9.4
						c-28-42.4-57-86.2-25.2-148.9c19.6-30.3,48.6-41.9,79.1-41.9c27,0,55.4,9,80.1,22.1c35.9,19,71.1,40.8,105.2,61.9
						c12.3,7.6,25,15.4,37.4,23.1c35.5,22.1,44.5,30.3,73.1,58.3c58.7,57.3,69.7,66.3,111.9,49.9c19-8.3,25.2-9.1,37.8-10.9
						c18.4-1,36.7,4.2,54.4,9.1c33.4,9.4,68.1,19.2,105.8-11.5c50.3-46.9,38.1-122.3,21.8-182.6c-22.4-83.5-26.6-123.6-29.5-150.2
						c-3-27.4-4.2-38.6-22.2-66.3c-4.8-9-9.3-16.9-13.5-24.6c-25.2-45-37.8-67.7-29.9-136.6c4.2-35.9,3-66.4-3.7-93.5
						c-1.2-5.2-3-10.5-4.5-15.6c-3.5-11.2-7.2-22.8-7.1-34.4c0.3-40,57.7-49.5,95.7-55.9c6.8-1.1,13.4-2.2,18.6-3.4
						c19.6-4.2,39.8-7.6,59.3-10.9c18-3,36.6-6.3,54.7-10c29.2-6.4,55.7-11.7,79.9-16.1h-10c-21.7,4.1-45,8.9-70.4,14.3
						c-18.2,3.7-36.7,7-54.7,10c-19.5,3.3-39.7,6.8-59.3,10.9c-5.2,1.1-11.7,2.2-18.6,3.3c-38.6,6.4-96.9,16.2-97.1,57.7
						c-0.1,11.9,3.7,23.6,7.2,35.1c1.6,5,3.3,10.4,4.5,15.4c6.7,27.2,7.8,56.6,3.7,92.8c-8,69.6,4.8,92.4,30.2,137.7
						c4.2,7.6,8.7,15.6,13.5,24.6c17.9,27.3,19.1,38.5,22,65.6c2.9,26.6,7.2,66.7,29.5,150.5c16.1,59.8,28.4,134.4-21.1,180.7
						c-36.8,30-71.1,20.3-104.1,11.1c-17.9-5-36.3-10.2-55.1-9.3c-12.8,1.8-19.2,2.6-38.3,11.1c-41.2,16-52,7-110-49.7
						c-28.8-28.1-37.8-36.3-73.5-58.5c-12.6-7.6-25.2-15.4-37.4-23.1c-34.1-21.1-69.3-43-105.3-62.1c-29.1-15.4-59.8-23.2-86.5-22
						c-32.1,1.5-58.1,16.1-75.2,42.4c-32.3,63.6-3.1,107.9,25.2,150.8c2,3.1,4.1,6.3,6.1,9.4c22.8,36.8,25.1,51.6,31.4,90.9l0.7,4.5
						c7.4,38.8,17.7,51.8,34.9,73.5c15.8,19.9,37.9,47.8,69.7,110.2h2C787.4,782.1,765,754,749.2,734z"/>
					<path class="st5" d="M1119.5,327.2c2.3,14.9,11.5,29.3,25.1,40c6.1,4.8,14.3,8.9,21.8,8.9c3.3,0,6.3-0.7,9.2-2.5
						c8.2-5,9.1-16.2,6.7-25.1c-5.2-17.9-18.7-38.5-37.5-44.6c-7.2-2.3-13.9-1.2-18.8,3C1120.6,311.4,1118.2,319.1,1119.5,327.2z
						 M1130.7,312.4c1.9-1.6,4.2-2.5,7-2.5c1.5,0,3.3,0.3,4.9,0.8c16.2,5.2,28.1,23.7,32.7,39.7c1.8,6,1.4,13.8-3.5,16.9
						c-6.1,3.8-16-0.8-22.7-5.9c-12.2-9.6-20.3-22.4-22.4-35.5C1125.8,320.4,1127.3,315.4,1130.7,312.4z"/>
					<path class="st5" d="M-296.5,303.2c57.4-35.3,84.2-65.8,110.1-95.1c21.6-24.4,41.9-47.5,78.6-73.7c25.4-17.6,50.1-31.1,71.9-43
						c54.4-29.6,93.7-51,80.4-106.7c0-0.1-0.1-0.1-0.1-0.3c0-0.1,0-0.1,0-0.3C27.1-58.1-10.1-77.6-49.5-98.2
						c-40.8-21.3-87.1-45.4-120.6-99.2c-6.8-12.1-12.1-23.9-16.4-35.2h-7.8c4.5,12.4,10.4,25.4,18,38.9
						c34.8,55.7,81.9,80.2,123.5,101.9C-13.1-71,21.3-53,37.5-13.3C49.4,36.8,14,56-39.3,85.1c-22,11.9-46.8,25.5-72.6,43.4
						c-37.5,26.7-59.1,51.2-80,74.8c-25.5,28.9-52,58.9-108.5,93.7C-436,379.1-481.4,396.1-517,405.3v7.5
						C-480.6,403.5-435.4,387.3-296.5,303.2z"/>
					<path class="st5" d="M843,737.7c-3.7-6.8-7.1-13-10.4-18.7c-22.6-40.5-34-60.9-45.6-136.4l-0.4-3.1c-2.2-16.9-5-40.3,5-52
						c4.2-4.9,10.4-7.5,18.7-7.8c40-1.1,91.3,39.2,126.1,77.1c14.6,16,23.1,29.5,32.1,43.7c13.4,21.3,27.3,43.3,62.9,73.7
						c29.2,24.4,83.4,69.6,138.1,69.6c14.6,0,29.2-3.3,43.5-10.9c16.2-10.5,24.7-20.1,31.9-28.5c10.6-12.3,19.1-22,47.1-29.2
						c89.2-18.3,121.2-28.5,143-106.3c13-51.8,23.3-178.5,23.6-197.7c-0.7-21.7-3.1-29.9-9.1-49.5l-2-6.8
						c-12.6-46.1-1.5-63,22.4-100.3c4.1-6.4,8.7-13.5,13.6-21.6l4.8-7.9c40.9-68.4,79.7-133,150.6-151.6v-3.8
						c-73,18.7-112.2,84.2-153.6,153.5l-4.6,7.8c-4.9,7.9-9.5,15.1-13.5,21.4c-23.9,37-35.8,55.5-22.8,103.3l2,6.8
						c6,19.8,8.3,27.3,9,48.4c-0.4,19-10.6,145.2-23.5,196.8c-21.4,76-50.8,85.4-140.3,103.7c-29.2,7.6-38.3,18.1-49,30.4
						c-7.2,8.3-15.4,17.6-31.1,27.7c-65.2,35.3-140.9-28-177.4-58.3c-35.2-30.2-49-51.8-62.2-72.9c-8.7-13.8-17.6-28-32.5-44.2
						c-17.1-18.7-77-79.7-128.8-78.3c-9.3,0.3-16.5,3.3-21.4,9c-11.2,13.1-8.2,37.2-5.9,54.9l0.4,3.1c11.7,76.4,23.2,96.9,46,137.8
						c3.3,5.7,6.7,11.9,10.4,18.7c19.8,34.9,37.7,71.1,53.8,105.9h4.1C881.3,810,863.2,773.1,843,737.7z"/>
					<path class="st5" d="M755.5,838.9c-22.8-46.1-42.3-64.5-58-79.4c-14.1-13.4-25.2-23.9-33.8-49.1c-5-17.7-5.5-32.2-6-46.3
						c-0.8-25.5-1.8-49.8-30.2-88.3c-7.1-9-13.4-16.8-19-23.7c-34.9-42.8-42.3-51.8-33-129.9c10.8-81.6,29.9-93.5,80.8-124.8
						l8.7-5.5c71.6-42.8,95.4-29.2,150.5,24.3c61.7,58.9,136.6,87.9,202.6,113.5c25,9.7,48.4,18.8,70.5,29.1l14,6.6
						c74.6,34.7,139.2,64.5,178.5,45.4c16.5-7.9,27.3-23.9,33.3-48.6c2.7-18.1,2.5-25.9,0.1-44.8c-8.3-46.4-24.4-71.9-41.3-99.1
						c-19.5-31.2-39.7-63.6-50.8-131.7c-11.5-73-14.1-83.5-16.2-92.8c-1.6-6.8-3.1-12.6-7.8-42.2c-9.6-68.9-31.4-90.7-52.4-111.7
						c-23.3-23.3-47.6-47.5-56.5-137.1c-0.8-14.7-0.7-25.9,1.4-35.9h-3.7c-2,10.1-2,21.4-1.2,36.2c9,91,33.7,115.6,57.6,139.4
						c21.6,21.6,42,41.9,51.4,109.7c4.6,29.7,6.1,35.7,7.8,42.6c2.3,9.3,4.8,19.6,16.2,92.5c11.2,68.8,31.5,101.4,51.3,133
						c16.8,26.7,32.5,52.1,40.8,97.6c2.3,18.7,2.6,25.8-0.1,43.5c-5.6,23.5-15.8,38.6-31.2,46c-37.8,18.3-101.5-11.3-175.5-45.6
						l-14.1-6.5c-22.2-10.4-45.8-19.5-70.8-29.2c-65.8-25.5-140.3-54.3-201.4-112.7c-55.5-53.9-81.5-68.8-155-24.8l-8.7,5.5
						c-50.5,31.1-71.5,44.1-82.5,127.4c-9.3,79.5-1.1,89.8,33.8,132.6c5.6,6.8,11.9,14.6,19,23.6c27.8,37.7,28.7,61.3,29.5,86.2
						c0.5,14.2,1,28.9,6.1,47.2c9,26.2,20.3,37,34.8,50.6c15.4,14.6,34.7,32.9,57.3,78.3c0.8,1.6,1.6,3.3,2.3,4.9h4.1
						C757.5,843.3,756.6,841.1,755.5,838.9z"/>
					<path class="st5" d="M646.9,826.4c-10.6-8.6-18.8-13.1-27.6-17.7c-6.3-3.4-12.8-7-21-12.4c-24.6-17.3-23.5-43-22.2-75.6
						c1.4-34.9,3-74.5-28-113.7c-14.9-17.5-25-26.5-35.6-35.9c-7.5-6.7-15.4-13.6-25.1-23.9c-26.2-31.1-17.2-59.2-4.8-98.1
						c11.6-36.2,25.9-81.3,12.4-142.3c-3-12.4-7-24-10.8-35.2c-14.9-43.5-26.6-77.8,31.8-117.3c48.6-30.2,88.8-43.1,125-43.1
						c50.3,0,92.8,25.2,138.9,65.1c24.8,22.1,42.6,40,56.9,54.2c29.7,29.7,44.6,44.6,76.1,53.6c0.1,0,0.3,0.1,0.4,0.1
						c9,1.4,20.5,2,30.6-4.1c25.4-15.6,16.2-53.9,10.8-76.8l-0.4-1.9c-6.4-27.2-13.1-55.4-0.5-80.9c3.7-7.4,10.4-15.7,21.6-12.8
						c12.7,3.3,22.4,13.8,31.5,24l3.3,3.5c9.1,10,19.4,19.1,29.1,28c2.4,2.2,4.8,4.4,7.2,6.5c2.1,1.8,4,3.7,5.9,5.5
						c9.4,8.7,19.1,17.6,30.2,25c16.9,11.1,30.7,11.1,38.9-0.1c14.6-19.9,8.9-48.3,5.7-59.6c-4.9-17.7-14.2-35.6-26.9-51.8
						c-11.5-14.7-24.4-26.2-39-34.4c-15.2-7.2-27.7-12-37.8-15.7c-43.3-16.1-49.8-18.6-78.5-158c-2.9-18.1-4.1-26.6-4-53.5
						c0.3-19.4,0.4-36.2,0.4-50.9c0-2.9,0-5.6,0-8.2h-7.2c0,2.7,0,5.5,0,8.2c0,14.7,0,31.5-0.4,50.9c0,27.4,1.2,36.2,4.1,54.9
						c29.5,143.5,37.7,146.5,83.1,163.5c10.5,4,22.4,8.3,37,15.4c13.5,7.5,25.8,18.4,36.6,32.3c12,15.6,20.9,32.6,25.7,49.4
						c2.9,10.2,8.2,36-4.6,53.4c-5.7,7.8-15.6,7.2-29.1-1.6c-10.6-7-19.7-15.3-29.2-24.2c-1.9-1.8-4-3.7-6-5.5
						c-2.5-2.2-4.8-4.4-7.2-6.5c-9.7-8.7-19.6-17.7-28.7-27.4l-3.1-3.5c-9.5-10.5-20.3-22.4-35.2-26.2c-12.3-3.1-23.2,3-29.9,16.6
						c-13.6,28-6.7,57.3,0.1,86l0.4,1.8c5,21,13.4,56.2-7.5,68.9c-8,4.9-17.9,4.2-25.5,3.1c-29.5-8.5-43.9-22.9-72.7-51.7
						c-14.3-14.3-32.2-32.2-57.2-54.4c-81.9-70.7-152.7-97-272.6-22.5c-63.2,42.7-49.9,81.2-34.8,125.8c3.8,11.1,7.6,22.5,10.6,34.5
						c13,59.1-0.4,101.2-12.3,138.5c-12.1,37.9-22.5,70.8,6.3,105.1c10,10.6,18,17.6,25.7,24.4c10.5,9.3,20.3,18.1,34.9,35.1
						c29.2,37,27.7,75,26.3,108.7c-1.4,32.1-2.6,62.2,25.4,81.9c8.5,5.7,15.1,9.3,21.6,12.8c8.7,4.8,16.2,8.9,26.3,17.1
						c5,4.4,9.4,8.7,13.4,13.4h9.3C659.8,838.8,653.8,832.5,646.9,826.4z"/>
					<path class="st5" d="M-102.5,739.2c-10.4-15.3-21-31-32.2-48c-85-137.7-62.4-168.6-12.6-236.5c10.4-14.2,22.1-30.2,34.2-49
						l3.1-5c46.5-74.5,83.2-133.2,221.5-140l4-0.1c63.2-3,101.2-4.8,141.6-111.2c12.7-34,28.7-69.2,43.9-103.2
						c35.3-78.3,68.8-152.1,66.4-212.7c-3.1-25.2-11.2-45-21-66h-4c10,21.3,18.3,41.1,21.3,66.2c2.2,59.5-31,133-66.2,210.9
						c-15.4,34.1-31.4,69.3-44.1,103.4C214.1,252.2,179,253.8,115.3,256.8l-4,0.1c-140.1,6.8-179.2,69.3-224.5,141.8l-3.1,4.9
						c-12,18.7-23.7,34.7-34.1,48.8c-49.1,67.1-73.8,100.8,12.6,240.6c11.2,17.2,22,32.9,32.3,48.2c28.1,41.2,51,75,61.1,104.1h3.8
						C-50.6,815.4-74,781.1-102.5,739.2z"/>
					<path class="st5" d="M-501.4,476.6c16.1-7.2,27.6-11.5,37.5-15.3c19.4-7.2,32.1-12,59.6-30.7c61-45.6,97.3-68.4,123.8-85
						c36.4-22.9,53.1-33.4,87.6-74.4c91.8-112.2,156.2-138.1,203.3-156.9c41.9-16.8,72-28.9,95.2-93.1c16.8-54,22-103.6-84.9-162.9
						c-4-2-8.1-4.2-12-6.3c-40.3-20.9-81.5-42.3-105.1-84.6h-4.5c23.9,44.3,66.3,66.3,107.7,87.9c4,2,8.1,4.1,12,6.3
						c104.7,58.1,100,104.2,83.2,158.5C79.4,82.7,51.3,94.1,8.9,111.1c-47.3,19.1-112.3,45.2-204.7,158
						c-34.1,40.5-50.6,50.9-86.8,73.5c-26.5,16.6-62.8,39.6-123.9,85.1c-27.2,18.4-39.7,23.2-58.8,30.3c-10.1,3.8-21.6,8-37.8,15.3
						c-5,2.2-9.7,4.8-13.9,7.4v4.4C-512.5,482.1-507.3,479.2-501.4,476.6z"/>
					<path class="st5" d="M-336.7,845.3h3.7c15.7-10.1,22.2-24.8,20.9-50.3c-5.3-127.8-9.1-164.1-31.5-199.8
						c-4.8-7.2-9.7-13.5-14.3-19.6c-27.6-36-44.2-57.9,38.6-140.4c31.9-29.3,55-43.3,75.2-55.4c21.4-13,38.5-23.2,58.3-47.1
						c6.4-8.3,12.7-17.5,19.2-27.2c19.8-29.2,42.2-62.2,85.8-96.7c43-32.5,80.1-45.6,112.8-57c50.5-17.9,90.5-31.9,126.2-105.7
						l0.5-1.2c46.8-99.1,70.3-148.7-7.6-277.4h-2.2c78.2,128.4,54.7,177.9,8.2,276.3l-0.5,1.2c-35.5,73.3-75,87.2-125.3,104.9
						c-32.9,11.6-70.1,24.7-113.4,57.3c-43.9,34.7-66.4,67.8-86.2,97.1c-6.5,9.7-12.7,18.8-19.1,27c-19.6,23.6-36.4,33.8-57.7,46.7
						c-20.3,12.3-43.4,26.2-75.5,55.7c-83.9,83.8-66.9,106-38.8,142.9c4.6,6.1,9.6,12.4,14.3,19.5c22.2,35.3,25.9,71.5,31.2,198.9
						C-312.6,820.9-319.7,835.4-336.7,845.3z"/>
					<path class="st5" d="M383,845.3h4c6.5-15.3,11.3-32.1,15-52.3c4.9-41.1-4.1-50.8-34-82.5c-15.6-16.6-37-39.3-65.4-75.9
						c-34.9-49.1-24.3-76.5-3.3-131c11.2-29.2,25.2-65.5,36.3-116.4c7.2-36.8,7.6-61.9,8-84.1c1.1-56.2,1.8-96.9,116.9-280.8
						c22.2-35.3,39.8-48.7,58.7-62.8c21.7-16.4,44.1-33.2,76.7-83.9c32.5-49.9,45.4-57.7,71.1-73.1c9-5.3,19.1-11.5,32.2-20.6
						c6.5-4.9,12.4-9.8,17.6-14.6h-5.5c-4.4,3.8-9,7.8-14.3,11.7c-13,9-23.1,15-31.9,20.3c-26.2,15.7-39.3,23.6-72.3,74.2
						c-32.2,50.2-54.3,66.9-75.7,83.1c-19,14.3-37,27.8-59.5,63.7C342.1,205.3,341.2,246.3,340.2,303.2c-0.4,22-0.8,46.8-8.1,83.4
						c-10.9,50.6-24.8,86.8-36,115.8c-20.7,53.9-32.2,83.6,3.8,134.4c28.5,36.8,49.9,59.6,65.6,76.3c29.7,31.7,37.8,40.1,33,79.5
						C394.7,813,389.8,830,383,845.3z"/>
					<path class="st5" d="M125.4,735.5c-43.1-45.8-88.7-72-125.4-93.1c-43.3-24.8-74.5-42.8-74.5-77.9l0.4-2.6
						c1.1-7.4,1.6-10.8,9.1-31.8c5.3-15.4,8.7-28.9,11.7-40.8c6.5-25.5,11.6-45.7,31-71.5c54.7-66.6,116.5-46.5,176.4-27
						c7.6,2.5,15.6,5,23.1,7.2c12.4,4,23.2,5.9,32.6,5.9c44.1,0,60.4-43.5,96.5-139.2c11.6-30.7,25.9-69,43.9-112.8
						c7.9-19,16-36.3,24.4-54.7c17.1-37,34.8-75,51.6-128c31-102.3,34.8-146.8,25.7-201.8h-7.4c9.6,55.4,5.6,97.6-25.2,199.6
						c-16.6,52.4-34.1,90.3-51.2,127c-8.6,18.4-16.6,35.9-24.6,55c-18,43.9-32.5,82.3-44.1,113.1c-44.2,117.5-56.1,149-120.2,128.9
						c-7.5-2.2-15-4.6-22.9-7.2C97.1,364.6,30,342.8-28,413.3c-20.3,27-25.9,48.8-32.3,74.1c-3.1,12.3-6.4,25.1-11.6,40.1
						c-7.6,21.7-8.2,25.2-9.4,33.2l-0.4,2.9c0,0.1,0,0.4,0,0.5c-0.3,39.6,32.6,58.4,78,84.5c36.3,20.9,81.3,46.7,123.6,91.7
						c36.7,39.3,59.8,74.4,69.3,104.9h7.5C187.3,813,163.6,776.3,125.4,735.5z"/>
				</g>
				<g class="st4">
					<path class="st6" d="M1520.5-31.3c14.3-12.6,33.2-30.8,31.4-44.5c-0.5-4.5-3.3-8.1-8.2-10.5c-27.7-14.2-75.3-7-106.3,16.2
						c-21.3,16-31,36.6-26.9,58.1v0.1c3.6,12.3,13.1,20.2,25.7,21.4c2.1,0.1,4,0.3,5.9,0.3c29.1,0,54.3-19.9,77.6-40.5L1520.5-31.3z
						 M1517.5-33.4c-24.4,21.6-50.8,42.3-80.9,39.4c-10.9-1.1-19.4-8.1-22.5-18.7c-3.7-20.2,5.3-39.6,25.5-54.6
						c29.9-22.4,75.9-29.5,102.5-15.8c3.8,1.9,5.7,4.5,6.1,7.8c1.1,8.9-9,22.8-30.2,41.3L1517.5-33.4z"/>
					<path class="st6" d="M912.5,799.2c-4.9-10.1-9.8-20.1-14.7-30.2c-15.3-31.8-26.7-61.7-34-89.1c-2.6-9.8-10.4-39.6,7.6-47.1
						c20.5-8.6,39.7,12,53.6,27c1.8,1.9,3.4,3.7,4.9,5.3c6.1,6.4,12.3,12.7,18.4,19.1c10.6,10.9,21.6,22.2,32.2,33.4
						c24.1,25.4,44.1,46.8,63.3,70.1c2.5,3,4.9,6.1,7.5,9.3c9.1,11.5,18.4,23.3,29.9,32.2c7.8,6.1,15.4,11.5,22.9,16.2h7
						c-9-5.3-18.2-11.6-27.6-19c-11-8.7-20.3-20.3-29.2-31.7c-2.5-3.1-5.1-6.3-7.5-9.3c-19.2-23.5-39.3-44.8-63.5-70.3
						c-10.6-11.2-21.7-22.5-32.2-33.4c-6.1-6.3-12.3-12.7-18.4-19c-1.5-1.6-3.1-3.4-4.9-5.2c-14.7-15.8-34.9-37.5-57.7-28
						c-20.9,8.9-12.4,40.8-9.7,51.3c7.2,27.6,18.8,57.9,34.2,89.8c4.9,10.1,9.8,20.2,14.7,30.3c7.1,14.6,14.5,29.6,21.6,44.6h4
						C927.5,829.8,919.9,814.2,912.5,799.2z"/>
					<path class="st6" d="M1338.5,577.6c-36.6,29.7-70.4,20.2-103,10.9c-17.6-5-35.9-10.1-54.6-9.1c-12.7,1.8-19,2.6-37.9,10.9
						c-40.8,15.7-51.4,7-108.9-49.1c-28.5-27.8-37.4-36-72.7-58c-12.4-7.5-25-15.3-37.1-22.8c-33.7-20.9-68.6-42.6-104.2-61.4
						c-28.8-15.3-59.2-22.9-85.6-21.7c-31.8,1.5-57.6,16-74.5,42c-32.1,62.9-3,106.8,25,149.3c2,3.1,4.1,6.1,6.1,9.3
						c22.5,36.4,24.8,51,31,90.1l0.7,4.5c7.2,38.3,17.6,51.3,34.5,72.7c15.1,18.7,35.6,44.5,64.7,100.2h2
						c-29.3-56.4-50.1-82.4-65.1-101.4c-17.5-22-27-34-34.2-71.9l-0.7-4.5c-6-38.1-8.6-53.9-31.2-90.7c-2-3.1-4.1-6.3-6.1-9.3
						c-27.7-42-56.5-85.4-25-147.4c19.5-30,48-41.5,78.3-41.5c26.7,0,54.9,8.9,79.3,21.8c35.6,18.8,70.4,40.4,104.1,61.4
						c12.1,7.5,24.7,15.3,37.1,22.8c35.2,21.8,44.1,30,72.5,57.7c58.1,56.8,69,65.6,110.8,49.5c18.8-8.2,25.1-9.1,37.5-10.8
						c18.3-1,36.3,4.1,53.9,9c33.2,9.4,67.4,19.1,104.7-11.3c49.8-46.5,37.7-121,21.6-180.7c-22.1-82.7-26.3-122.4-29.2-148.7
						c-2.9-27.2-4.1-38.3-22-65.6c-4.8-8.9-9.1-16.8-13.4-24.3c-25-44.6-37.4-67-29.6-135.2c4.1-35.5,3-65.8-3.7-92.5
						c-1.2-5-2.9-10.4-4.5-15.4c-3.5-11.1-7.1-22.5-7.1-34.1c0.3-39.6,57-49.1,94.7-55.4c6.8-1.1,13.2-2.2,18.4-3.3
						c19.5-4.1,39.4-7.5,58.7-10.8c17.7-3,36.2-6.1,54.2-10c65.9-14.3,118.6-23.6,161-28.5v-1.8c-42.6,5-95.2,14.2-161.3,28.5
						c-18,3.7-36.3,6.8-54.2,9.8c-19.4,3.3-39.3,6.7-58.8,10.9c-5.2,1.1-11.6,2.2-18.3,3.3c-38.2,6.4-95.9,16.1-96.2,57.2
						c-0.1,11.9,3.5,23.5,7.1,34.7c1.6,5,3.3,10.2,4.5,15.3c6.7,26.9,7.8,56.1,3.6,92c-7.9,68.9,4.6,91.4,29.9,136.3
						c4.2,7.5,8.6,15.4,13.4,24.3c17.7,27,19,38.2,21.8,64.9c2.9,26.3,7.1,66.2,29.2,149C1375.5,458,1387.6,531.9,1338.5,577.6z"/>
					<path class="st6" d="M707.6,769.2c-13.9-13.2-25-23.6-33.6-48.6c-4.9-17.6-5.5-31.9-5.9-45.7c-0.8-25.4-1.6-49.3-29.9-87.5
						c-7-9-13.2-16.6-18.8-23.5c-34.7-42.4-41.9-51.3-32.7-128.5c10.8-80.9,29.6-92.5,80-123.6l8.7-5.3
						c70.8-42.4,94.4-28.9,149.1,24c61.1,58.3,135.2,87.1,200.6,112.4c24.7,9.6,48,18.6,69.9,28.8l13.9,6.4
						c73.9,34.2,137.8,63.9,176.7,45c16.2-7.9,27-23.6,32.9-48.2c2.7-18,2.5-25.7,0.1-44.3c-8.3-45.8-24.2-71.2-40.9-98
						c-19.4-31-39.3-63-50.2-130.3c-11.3-72.2-13.9-82.7-16.1-91.8c-1.6-6.7-3-12.4-7.6-41.8c-9.4-68.2-31-89.8-51.8-110.7
						c-23.2-23.1-47.1-46.9-55.9-135.8c-1.4-24.8-0.3-39.8,9.1-55h-4.2c-8.9,15.3-9.8,30.6-8.5,55.3c9,90.2,33.4,114.5,57,138.1
						c21.4,21.3,41.6,41.5,50.9,108.6c4.6,29.5,6.1,35.3,7.8,42.2c2.2,9.1,4.8,19.5,16.1,91.6c11,68.1,31.2,100.4,50.8,131.7
						c16.5,26.5,32.2,51.6,40.4,96.6c2.3,18.6,2.6,25.5-0.1,43.1c-5.6,23.3-15.7,38.2-31,45.6c-37.4,18.1-100.6-11.2-173.7-45
						l-13.9-6.4c-22-10.2-45.3-19.2-70.1-28.9c-65.1-25.2-138.9-53.9-199.3-111.6c-55-53.4-80.8-68.1-153.5-24.6l-8.7,5.3
						c-50.1,30.8-70.7,43.7-81.7,126.2c-9.3,78.7-1.1,88.8,33.6,131.3c5.6,6.8,11.7,14.5,18.7,23.3c27.6,37.3,28.2,60.6,29.2,85.4
						c0.5,14.1,1,28.7,6.1,46.7c8.9,25.9,20.2,36.6,34.5,50.1c14.9,14.1,33.2,31.5,54.6,73.5h4.1
						C741.8,801.5,722.9,783.5,707.6,769.2z"/>
					<path class="st6" d="M1150.5,380.9c6.1,4.8,14.2,8.7,21.6,8.7c3.1,0,6.3-0.7,9-2.5c8.1-5,9.1-16.1,6.5-24.8
						c-5-17.6-18.5-38.2-37.1-44.2c-7.1-2.3-13.8-1.2-18.7,3c-5.3,4.5-7.6,12-6.4,20.1C1127.8,355.9,1137,370.4,1150.5,380.9z
						 M1136.6,326.6c1.9-1.6,4.2-2.5,6.8-2.5c1.5,0,3.1,0.3,4.9,0.8c16.1,5.2,27.8,23.5,32.3,39.3c1.8,6,1.4,13.6-3.6,16.8
						c-6.1,3.8-15.8-0.8-22.4-5.9c-12.1-9.4-20.2-22.2-22.2-35.1C1131.8,334.5,1133.2,329.4,1136.6,326.6z"/>
					<path class="st6" d="M1295.5,721.4c-28.9,7.5-38.1,18-48.6,30.2c-7.1,8.2-15.1,17.5-30.8,27.4
						c-64.5,34.9-139.6-27.7-175.6-57.7c-34.8-29.7-48.4-51.3-61.5-72.2c-8.6-13.6-17.5-27.7-32.2-43.7
						c-16.9-18.6-76.3-78.9-127.6-77.5c-9.1,0.3-16.4,3.3-21.1,8.9c-11.1,13-8.1,36.8-5.9,54.3l0.4,3.1
						c11.7,75.6,23.1,95.9,45.6,136.4c3.1,5.7,6.5,11.7,10.2,18.6c17.9,31.7,34.2,64.4,49.1,96.1h4c-15-32.2-31.7-65.5-49.9-97.8
						c-3.7-6.7-7.1-12.8-10.2-18.6c-22.4-40.1-33.6-60.2-45.2-135.1l-0.4-3.1c-2.2-16.8-5-39.8,5-51.6c4.2-4.9,10.2-7.4,18.6-7.6
						c39.6-1.1,90.5,38.8,124.7,76.3c14.5,15.8,22.9,29.1,31.8,43.3c13.2,21,27,42.7,62.4,73c28.9,24.1,82.6,68.9,136.7,68.8
						c14.5,0,28.9-3.1,43.1-10.8c16.1-10.4,24.4-19.8,31.7-28.2c10.5-12.1,19-21.7,46.7-28.9c88.3-18,119.9-28.2,141.6-105.2
						c12.8-51.3,23.1-176.7,23.5-195.7c-0.7-21.6-3.1-29.6-9-49l-2-6.7c-12.4-45.6-1.5-62.5,22.2-99.3c4.1-6.3,8.6-13.5,13.5-21.3
						l4.6-7.8c40.4-67.4,78.6-131.1,148.2-149.8v-3.7c-71.6,18.8-110.4,83.4-151.3,151.7l-4.6,7.8c-4.8,7.8-9.4,15-13.5,21.3
						c-23.6,36.7-35.5,55-22.7,102.2l2,6.8c6,19.6,8.2,27,8.9,48c-0.4,18.8-10.6,143.7-23.3,194.7
						C1413.3,694,1384.2,703.3,1295.5,721.4z"/>
					<path class="st6" d="M1270.9,654.4c-16.9-0.1-32.9-0.3-46.1,3.7c-16.2,6.5-26.6,16.5-35.8,25.2c-17.6,16.9-31.7,30.2-80.8,12.1
						c-61-24.3-73-45.2-89.6-74.2c-19.9-34.7-44.8-77.9-161.5-145.9c-14.5-8.5-29.1-16.5-44.3-23.5c-12-5.6-24.4-10.5-37.5-13.2
						c-10.5-2.3-21.4-3.1-32.1-1.1c-7.2,1.4-14.3,3.8-20.6,7.5c-6.7,4-11.7,9.8-15.8,16.2c-7.6,12.1-9.4,26.2-6.3,40.1
						c3.4,14.9,10.8,28.5,18.1,41.6c1.5,2.6,3,5.3,4.5,7.9l0.7,1.4c26.9,47.2,30.8,68.1,34.7,88.3c4.8,25.4,9.4,49.3,55.1,118.7
						c24.6,37,34.9,57.6,47.8,86.1h7.9c-13.6-30.4-23.9-51.3-49.7-90.1c-44.9-68.2-49.4-91.4-54-116.1c-4-20.7-8.1-42.3-35.5-90.5
						l-0.7-1.4c-7.6-13.4-15.7-26.9-20.3-41.8c-4-12.6-4.2-25.7,2-37.4c3.4-6.4,7.5-12,13.6-15.8c4.2-2.6,8.7-4.8,13.5-6.3
						c9.8-3,20.2-3.1,30.3-1.5c12.4,2,24.4,6.3,35.9,11.3c14.9,6.4,29.2,14.2,43.3,22.2c1.9,1.1,3.8,2.2,5.7,3.3
						c115.2,67,139.4,109.3,159,143.3c16.8,29.1,30,52.1,93.3,77.4c53.5,19.5,69.6,4.1,88.3-13.6c9.2-8.7,18.6-17.6,33.2-23.6
						c11.9-3.5,27.3-3.4,43.7-3.3c49.4,0.4,110.8,1.1,138.5-93.1c22.9-90.5,9.8-139.7-0.7-179.2c-10.2-38.8-18.4-69.4,8.9-124
						c4.8-8.7,7.9-14.3,10.6-19.1c4.2-7.5,7.6-13.4,14.5-27.2c14.5-31.8,16.6-58.5,6.6-79.5c-9.3-19.4-28.4-32.7-56.8-40
						c-0.1,0-0.3,0-0.4-0.1c-12.8-1.9-21.7-2.6-28.1-3.1c-12.3-1-16.5-1.4-28.5-8.1c-17.1-17.3-13.5-34.8-6.4-69.5
						c1.4-6.5,2.7-13.5,4.2-21.3c1.6-8.9,2.9-17.2,4.2-24.8c12.4-75.7,15-91.4,118.3-113.1c27.2-5.9,49-11.9,68.2-17.2
						c38.6-10.6,68.2-18.7,114.9-18.8v-7.2c-47.5,0.1-77.5,8.3-116.8,19.1c-19.1,5.2-40.8,11.2-67.8,17.1
						c-108.2,22.6-111.2,41.2-123.9,119c-1.2,7.6-2.6,16-4.2,24.8c-1.4,7.6-2.9,14.6-4.2,21.1c-7.1,35.1-11.5,56.2,8.7,76.3
						c0.3,0.3,0.4,0.4,0.7,0.5c13.6,7.8,19,8.2,31.9,9.3c6.3,0.5,14.9,1.2,27.4,3c26.1,6.7,43.5,18.8,51.8,36
						c9.1,19,7,43.8-6.6,73.4c-6.7,13.5-10.1,19.2-14.2,26.6c-2.7,4.9-6,10.5-10.8,19.4c-28.5,57.2-19.7,90.5-9.4,129.2
						c10.8,40.8,23.1,86.9,0.7,175.5C1376.2,655.4,1320.3,654.8,1270.9,654.4z"/>
					<path class="st6" d="M1405,803c-12.2,16-13.7,29.1-13.8,42.3h3.5c0-13,1.5-25,12.8-40c29.6-24.3,91.1-28.1,121-14.3l1.2,1.1
						c3,2.6,3,2.6,4.5,3.8l1.1,0.8c0.9,1.4,1.8,2.6,2.6,3.5c3.7,4.9,4.6,6.3,9.1,16.8c3.3,10.1,6,19.2,6.8,28.2h3.7
						c-0.8-9.4-3.6-19-7.1-29.5c-4.8-11.1-5.9-12.7-9.6-17.7c-0.8-1.1-1.6-2.2-2.7-3.7c-0.1-0.1-0.1-0.3-0.3-0.4l-1.2-1
						c-1.5-1.2-1.5-1.2-4.5-3.8l-1.5-1.2c-0.1-0.1-0.3-0.1-0.4-0.3c-30.8-14.3-94.7-10.4-125.3,14.9
						C1405.1,802.8,1405.1,802.9,1405,803z"/>
					<path class="st6" d="M707.2-201.5c-12.8,8.9-22.8,14.9-31.7,20.2c-25.9,15.6-38.9,23.3-71.5,73.5c-31.9,49.8-53.8,66.3-75,82.1
						C510.1-11.4,492.4,2,470,37.6C355.5,220.4,354.9,261.2,353.8,317.4c-0.4,21.7-0.8,46.4-7.9,82.5c-10.8,50.1-24.6,86-35.7,114.6
						c-20.6,53.3-31.9,82.8,3.8,133c28.2,36.4,49.4,58.9,64.9,75.5c29.5,31.4,37.4,39.7,32.7,78.7c-3,16.4-6.8,30.6-11.7,43.4h3.8
						c4.8-12.7,8.5-26.7,11.3-42.8c4.9-40.7-4.1-50.2-33.7-81.7c-15.4-16.4-36.6-38.9-64.7-75.2c-34.5-48.7-24.1-75.7-3.3-129.6
						c11.2-28.9,25-64.8,35.9-115.3c7.1-36.6,7.6-61.3,8-83.2c1.1-55.7,1.8-95.9,115.7-278.1C495,4.1,512.6-9,531-23
						c21.4-16.1,43.7-32.9,75.9-83.1c32.2-49.4,44.9-57.2,70.4-72.3c8.9-5.3,19-11.3,31.9-20.3c15.6-11.5,26.9-22.6,35.9-33.8h-4.6
						C731.9-222.4,721.2-212.1,707.2-201.5z"/>
					<path class="st6" d="M-116.2,701.5c-84.2-136.3-61.7-167-12.6-234.1c10.2-14.1,22-29.9,33.8-48.6l3.1-4.9
						c46.1-73.7,82.4-131.9,219.3-138.6l3.8-0.1c62.5-3,100.1-4.8,140.3-110.1c12.6-33.6,28.2-68.5,43.5-102.2
						c35.1-77.5,68.1-150.6,65.8-210.5c-3.4-29.2-13.9-51.2-25.9-76.4c-1.2-2.7-2.6-5.5-4-8.3h-4c1.6,3.4,3.1,6.7,4.6,9.8
						c11.9,25,22.2,46.7,25.5,75.2c2.2,58.9-30.7,131.8-65.5,208.9c-15.3,33.7-31,68.6-43.7,102.3c-39.2,103.2-74,104.8-137,107.8
						l-3.8,0.1C-11.6,278.5-50.2,340.3-95,412l-3.1,4.9c-11.9,18.6-23.5,34.4-33.7,48.3c-48.7,66.4-73.1,99.7,12.4,238.2
						c11.1,16.9,21.7,32.6,31.9,47.6c25,36.7,46,67.5,57.2,94.3h3.8c-11.2-27.4-32.6-58.8-58.1-96.3
						C-94.7,734-105.2,718.4-116.2,701.5z"/>
					<path class="st6" d="M-414.3,246.6c22.2,13.1,40,23.5,65.8,23.5c17.9,0,39.7-4.9,69.4-17.5c40.5-19.4,56.4-34.9,80.1-58.3
						c25.9-25.7,61.5-60.6,149.4-121.7c2.3-1.8,4.9-3.5,7.5-5.5C-22.4,53.4,4.5,34.4-8.5,8.5c-10.1-20.2-34.2-33-53.5-43.3l-1.6-0.8
						c-104.8-56.1-158.7-103-176.6-197h-3.7c17.7,95.8,72.3,143.3,178.7,200l1.6,0.8c18.8,10.1,42.3,22.5,52,41.8
						C0.1,33.1-25.3,50.9-43.9,64c-2.7,1.9-5.3,3.8-7.6,5.5c-88,61.3-123.8,96.5-149.8,122.1c-23.5,23.2-39,38.5-79,57.6
						c-71.4,29.9-95.5,15.7-132.1-5.7l-3-1.8c-45.7-23.6-77.2-30.8-101.5-31v3.7c23.9,0,54.7,7.1,99.9,30.4L-414.3,246.6z"/>
					<path class="st6" d="M236.5,759.6c-16.4-27.3-37-50.2-61.1-68.2c-7.6-5.7-16.2-10.6-24.4-15.4c-17.7-10.2-36-21-46.7-39.4
						c-25.2-44.2,12-91.7,46.4-111.3c17.6-10.1,38.2-12.6,53.8-6.7c11.6,4.4,19.9,13.4,24.2,26.1c5.7,16.9,4.5,33.7,3.1,51.6
						c-0.8,10.8-1.6,21.8-0.7,32.9c2.2,27,14.9,53.2,35.6,73.4c7.2,7,15,13.4,22.6,19.5c11.6,9.4,23.6,19.1,33.2,31.1
						c18.6,23.3,27,53.6,25.8,92.1h3.5c1.2-39.3-7.5-70.4-26.6-94.4c-9.8-12.3-22-22.1-33.7-31.7c-7.5-6.1-15.4-12.4-22.4-19.4
						c-20.2-19.6-32.5-45-34.7-71.2c-0.8-10.8-0.1-21.7,0.7-32.3c1.2-17.5,2.6-35.3-3.4-52.9c-4.6-13.6-13.6-23.5-26.3-28.2
						c-16.5-6.3-38.2-3.7-56.8,7c-35.7,20.3-74.1,69.9-47.8,116.3c11.1,19.4,29.7,30.3,47.9,40.8c8.2,4.8,16.5,9.6,24,15.1
						c23.9,17.7,44.2,40.3,60.3,67.1c15.1,25.2,26.1,53.9,32.3,83.8h3.7C263.1,814.8,251.9,785.4,236.5,759.6z"/>
					<path class="st6" d="M275.2-199.8c25.9,50.8,38.9,76.3,1,174.6C263.6,6.3,255.8,22.4,243,49c-4,8.2-8.5,17.5-13.6,28.4
						C181.6,178.5,176,180,122.3,193.7c-24.8,6.3-58.7,15-111.2,36.8c-74,33.6-101,76.7-129.6,122.3c-3.1,5-6.3,10.1-9.6,15.1
						c-21.1,31-43.8,50.3-63.9,67.4c-35.9,30.8-64.4,55.1-56.2,127c4.4,28.1,9,44.2,14.7,64.7c3,10.5,6.4,22.5,10.2,37.7
						c3,11.2,5.5,22.8,7.9,35.1c5.6,26.7,11.9,57,25.9,87.1c5.5,10.4,10.9,19.4,15.8,27.4c6.8,11.3,12.8,21,16.6,31h3.8
						c-4-10.8-10.1-21-17.5-32.9c-4.8-7.9-10.4-16.9-15.7-27.2c-13.9-29.6-19.8-58.4-25.7-86.2c-2.6-12.4-5-24-8-35.3
						c-3.8-15.3-7.2-27.2-10.2-37.8c-5.7-20.3-10.4-36.4-14.7-64.1c-7.9-69.9,18.6-92.5,55-123.9c20.2-17.3,43-36.8,64.4-68.2
						c3.3-5,6.4-10.2,9.6-15.3c28.4-45.2,55.1-87.9,128-120.9c52.3-21.7,86-30.3,110.7-36.6c54-13.8,61-15.6,109.4-118.2
						c5.2-10.9,9.7-20.2,13.6-28.4c13-26.6,20.7-42.7,33.3-74.5c38.5-100,25.2-125.9-1.1-177.7c-4.9-9.6-10-19.6-15.3-31.1h-4
						C264.7-220.4,270.2-209.8,275.2-199.8z"/>
					<path class="st6" d="M164.5-213.1c77.4,127.2,54.2,176.1,8.1,273.6l-0.5,1.2c-35.2,72.5-74.4,86.4-124,103.8
						C15.4,177-21.4,190.1-64.3,222.3c-43.5,34.2-65.8,67.1-85.4,96.2c-6.4,9.6-12.6,18.6-19,26.7c-19.4,23.3-36.2,33.4-57.2,46.3
						c-20.1,12.1-43,25.9-74.8,55.1c-83.1,83-66.3,104.9-38.5,141.4c4.6,6,9.4,12.3,14.2,19.4c22,34.9,25.7,70.8,31,196.9
						c1.1,18.8-2.6,31.7-11.2,40.9h2.6c8.1-9.6,11.5-22.4,10.4-41.1c-5.3-126.5-9-162.5-31.2-197.8c-4.8-7.1-9.6-13.4-14.2-19.5
						c-27.3-35.7-43.7-57.2,38.2-139c31.7-29.1,54.4-42.8,74.5-54.8c21.3-12.8,38.1-22.9,57.7-46.7c6.4-8.3,12.6-17.3,19-26.9
						c19.5-28.9,41.8-61.7,85-95.8c42.6-32.1,79.3-45,111.7-56.5c50.1-17.6,89.5-31.5,125-104.8l0.5-1.2
						c46.4-98.1,69.7-147.2-8.2-275.3c-4.8-6.8-9.4-13-14.1-18.6h-2.3C154.6-226.7,159.5-220.3,164.5-213.1z"/>
					<path class="st6" d="M432.2-15.4c-16.4,51.8-33.8,89.5-50.6,125.8c-8.5,18.3-16.5,35.5-24.3,54.4
						c-17.9,43.5-32.1,81.5-43.5,111.9C270,393,258.3,424.3,194.8,404.3c-7.4-2.2-14.9-4.6-22.7-7.2C113.5,378,47,356.4-10.4,426.3
						C-30.5,453-36,474.6-42.3,499.7c-3.1,12.1-6.3,24.8-11.5,39.7c-7.6,21.4-8.2,25-9.3,32.9l-0.4,2.7c0,0.1,0,0.4,0,0.5
						c-0.3,39.2,32.3,57.9,77.4,83.6c35.9,20.6,80.5,46.3,122.4,90.9c32.9,35.2,54.7,66.9,65.5,95.1h7.6
						c-10.9-29.7-33.6-63.2-67.8-100c-42.7-45.4-87.9-71.4-124.2-92.1c-42.8-24.6-73.8-42.4-73.7-77.1l0.4-2.6
						c1.1-7.4,1.6-10.6,9-31.5c5.3-15.3,8.6-28.7,11.6-40.4c6.4-25.4,11.5-45.3,30.7-70.7c54.2-65.9,115.4-46,174.6-26.7
						c7.5,2.5,15.4,5,22.8,7.2c12.4,3.8,22.9,5.9,32.3,5.9c43.7,0,59.9-43,95.5-137.8c11.5-30.4,25.7-68.4,43.5-111.7
						c7.8-18.8,15.8-36,24.2-54.2c16.9-36.6,34.4-74.4,51-126.8c33.8-113.1,34.7-154.7,21.3-219.3h-7.4
						C467.3-167.1,466.3-128.1,432.2-15.4z"/>
					<path class="st6" d="M24-126.2c4,2,7.9,4.1,11.9,6.1c103.6,57.6,99.1,103.3,82.4,156.9C95.9,98.8,68.1,110,26,126.9
						c-46.9,18.8-111.2,44.8-202.6,156.4c-33.8,40.1-50.1,50.3-85.8,72.9c-26.2,16.5-62.2,39.2-122.7,84.3
						c-26.9,18.3-39.3,22.9-58.1,30c-10,3.7-21.3,7.9-37.4,15.1c-19,8.5-31,19-36.2,31.4v29.2c7.6,21.4,30.6,45,65.9,67.1l3.1,1.9
						c46.8,29.2,83.8,52.1,74.4,129.9c-11.2,61.3-39.3,73.5-123.1,95.6c-7.1,1.8-13.5,3.3-19.8,4.5h16.5c1.4-0.3,2.6-0.5,4-1
						c83.8-22,114.2-35.3,125.7-98.5c9.7-80.1-28.1-103.7-76-133.4l-3.1-1.9c-44.2-27.6-68.6-57.3-67-81.5
						c1.1-16,13.5-29.5,36.8-39.8c16-7.1,27.3-11.3,37.3-15c19.1-7.1,31.8-11.9,58.9-30.4c60.4-45.2,96.3-67.7,122.5-84.2
						c36-22.8,52.5-33.2,86.6-73.7C-83.1,174.8-19.4,149.2,27.3,130.5c41.5-16.6,71.4-28.7,94.4-92.2
						C138.2-15.2,143.4-64.2,37.6-123c-4-2-7.9-4.1-11.9-6.1c-45.8-23.7-92.6-48-113.4-103.4h-3.8C-70.7-175.1-22.8-150.3,24-126.2z
						"/>
					<path class="st6" d="M-157.6-174.6c34.4,55.1,81,79.4,122.3,101C4.1-53,38.1-35.3,54.2,4C65.9,53.7,31,72.6-22,101.4
						c-21.7,11.9-46.4,25.2-71.9,43c-37.1,26.5-58.5,50.6-79.1,74.1c-25.2,28.7-51.4,58.4-107.4,92.8
						c-153.5,93.1-190.3,101.7-229.2,110.8c-2.5,0.5-4.9,1.1-7.4,1.8v7.4c3-0.7,6-1.5,9-2.2c39.6-9.3,76.8-18,231.5-111.6
						c56.9-35.1,83.4-65.1,109-94.1c21.3-24.2,41.5-47.1,77.9-73c25.1-17.5,49.5-30.8,71.1-42.6C35.5,78.4,74.4,57.2,61.1,2
						c0-0.1-0.1-0.1-0.1-0.3c0-0.1,0-0.1,0-0.3C43.9-40.5,7.1-59.7-31.9-80.2c-40.4-21.1-86.1-45-119.4-98.2
						c-10.8-19.1-18-37.3-22.5-54.3h-7.5C-176.7-214.4-169.1-195.1-157.6-174.6z"/>
				</g>
				<g class="st4">
					<path class="st7" d="M927.1,839.3c-8.5-18.3-17.5-36.6-26.2-54.3c-4.9-10.1-9.8-20.1-14.7-30.2c-15.3-31.8-26.7-61.7-34-89.1
						c-2.6-9.8-10.4-39.6,7.6-47.1c20.5-8.6,39.7,12,53.6,27c1.8,1.9,3.4,3.7,4.9,5.3c6.1,6.4,12.3,12.7,18.4,19.1
						c10.6,10.9,21.6,22.2,32.2,33.4c24.2,25.4,44.1,46.8,63.3,70.1c2.5,3,4.9,6.1,7.5,9.3c9.1,11.5,18.4,23.3,29.9,32.2
						c17.1,13.5,33.4,23.2,49.4,30.3h9.4c-18.4-7.2-37-17.7-56.5-33.2c-11.1-8.7-20.3-20.3-29.2-31.7c-2.5-3.1-5-6.3-7.5-9.3
						c-19.2-23.5-39.3-44.8-63.4-70.3c-10.6-11.2-21.7-22.5-32.2-33.4c-6.1-6.3-12.3-12.7-18.4-19.1c-1.5-1.6-3.1-3.4-4.9-5.2
						c-14.7-15.8-34.9-37.5-57.7-28c-20.9,8.9-12.4,40.8-9.7,51.3c7.2,27.6,18.8,57.9,34.2,89.8c4.9,10.1,9.8,20.2,14.7,30.2
						c8.7,17.7,17.7,36,26.2,54.2c0.7,1.5,1.4,3,2,4.5h4C929.1,843.3,928.1,841.2,927.1,839.3z"/>
					<path class="st7" d="M1383.4,845.3c0-2.6,0-5.2,0-7.6c-0.3-15.6-0.5-28.9,12.8-46.5c29.6-24.3,91.1-28.1,121-14.3l1.2,1.1
						c3,2.6,3,2.6,4.5,3.8l1.1,0.8c1,1.4,1.8,2.6,2.6,3.5c3.7,4.9,4.6,6.3,9.1,16.8c5,15.4,8.6,28.5,6.1,42.4h3.7
						c2.3-14.3-1.2-27.8-6.6-43.7c-4.8-11.1-5.9-12.7-9.5-17.7c-0.8-1.1-1.6-2.2-2.7-3.7c-0.1-0.1-0.1-0.3-0.3-0.4l-1.2-1
						c-1.5-1.2-1.5-1.2-4.5-3.8l-1.5-1.2c-0.1-0.1-0.3-0.1-0.4-0.3c-30.8-14.3-94.7-10.4-125.3,14.9c-0.1,0.1-0.1,0.1-0.3,0.3
						c-14.2,18.7-13.9,33.4-13.6,49c0,2.5,0.1,5,0,7.5h3.7V845.3z"/>
					<path class="st7" d="M1259.2,640.2c-16.9-0.1-32.9-0.3-46.1,3.7c-16.2,6.5-26.6,16.5-35.8,25.2c-17.6,16.9-31.7,30.2-80.8,12.1
						c-61-24.3-73-45.2-89.6-74.2c-19.9-34.7-44.8-77.9-161.5-145.9c-14.5-8.5-29.1-16.5-44.2-23.5c-12-5.6-24.4-10.5-37.4-13.4
						c-10.5-2.3-21.4-3.1-32.1-1.1c-4.9,1-9.6,2.5-14.1,4.4c-7.4,3.3-13.4,7.4-18.4,13.8c-4.6,5.9-8.5,12.7-10.2,20.1
						c-3.5,13.8-0.3,28,5,40.9c4.9,11.9,11.2,23.2,17.7,34.2l0.7,1.4c26.9,47.2,30.8,68.1,34.7,88.3c4.8,25.4,9.4,49.3,55.1,118.7
						c28.5,42.8,37.8,63.6,54,100.3h7.9c-0.1-0.4-0.4-1-0.5-1.4c-16.9-38.1-26.2-58.9-55.4-102.9c-44.9-68.2-49.4-91.4-54-116.1
						c-4-20.7-8-42.3-35.5-90.5l-0.7-1.4c-7.6-13.4-15.8-27-20.5-41.8c-4-12.6-4.2-25.7,2-37.5c3.4-6.4,8.1-12.6,14.5-16.4
						c4.5-2.6,9.1-4.6,14.2-6.1c10-2.7,20.3-2.6,30.4-0.8c12.6,2.2,24.6,6.8,36.2,12c15,6.7,29.5,14.6,43.7,22.8
						c1.1,0.7,2.3,1.2,3.4,1.9c115.2,67,139.4,109.3,159,143.3c16.8,29.1,30,52.1,93.3,77.4c53.5,19.5,69.6,4.1,88.3-13.6
						c9.1-8.7,18.5-17.6,33.1-23.6c11.9-3.5,27.3-3.4,43.7-3.3c49.4,0.4,110.8,1.1,138.5-93.1c22.9-90.5,9.8-139.7-0.5-179.2
						c-10.2-38.8-18.4-69.4,8.9-124c4.8-8.7,7.9-14.3,10.6-19.1c4.2-7.5,7.6-13.4,14.5-27.2c14.5-31.8,16.7-58.5,6.5-79.5
						c-9.3-19.4-28.4-32.7-56.8-40c-0.1,0-0.3,0-0.4-0.1c-12.8-1.9-21.7-2.6-28.1-3.1c-12.3-1-16.5-1.4-28.5-8.1
						c-17.1-17.3-13.5-34.8-6.4-69.5c1.4-6.5,2.7-13.5,4.2-21.3c1.6-8.9,2.9-17.2,4.2-24.8c12.4-75.7,15-91.4,118.3-113.1
						c27.2-5.9,49-11.9,68.2-17.2c41.8-11.5,73-19.9,126.3-18.7v-7.1c-54.4-1.2-86,7.4-128.3,19c-19.1,5.2-40.8,11.2-67.8,17.1
						c-108.2,22.6-111.2,41.2-123.9,119c-1.2,7.6-2.6,16-4.2,24.8c-1.4,7.6-2.9,14.6-4.2,21.1c-7.1,35.1-11.5,56.2,8.7,76.3
						c0.3,0.3,0.4,0.4,0.7,0.5c13.6,7.8,19,8.2,31.9,9.3c6.3,0.5,14.9,1.2,27.4,3c26.1,6.7,43.5,18.8,51.8,36
						c9.1,19,7,43.8-6.6,73.4c-6.7,13.5-10.1,19.2-14.2,26.6c-2.7,4.9-6,10.5-10.8,19.4c-28.5,57.2-19.7,90.5-9.4,129.2
						c10.8,40.8,23.1,86.9,0.7,175.5C1364.6,641.2,1308.6,640.7,1259.2,640.2z"/>
					<path class="st7" d="M1283.9,707.2c-28.9,7.5-38.1,18-48.6,30.2c-7.1,8.2-15.1,17.5-30.8,27.4
						c-64.5,34.9-139.6-27.7-175.6-57.7c-34.8-29.7-48.4-51.3-61.5-72.2c-8.6-13.6-17.5-27.7-32.2-43.7
						c-16.9-18.6-76.3-78.9-127.6-77.5c-9.1,0.3-16.4,3.3-21.1,8.9c-11.1,13-8,36.8-5.9,54.3l0.4,3.1
						c11.7,75.6,23.1,95.9,45.6,136.4c3.1,5.7,6.5,11.7,10.2,18.6c20.6,36.4,39.2,74.2,55.7,110.2h4c-16.8-36.6-35.6-75-56.5-112
						c-3.7-6.7-7.1-12.8-10.2-18.6c-22.4-40.1-33.6-60.2-45.2-135.1l-0.4-3.1c-2.2-16.8-5-39.8,5-51.6c4.2-4.9,10.2-7.4,18.6-7.6
						c39.6-1.1,90.5,38.8,124.7,76.3c14.5,15.8,22.9,29.1,31.8,43.3c13.2,21,27,42.7,62.4,73c28.9,24.2,82.6,68.9,136.7,68.8
						c14.5,0,28.9-3.1,43.1-10.8c16.1-10.4,24.4-19.8,31.6-28.2c10.5-12.1,19-21.7,46.7-28.9c88.3-18,119.9-28.2,141.6-105.2
						c12.8-51.3,23.1-176.7,23.5-195.7c-0.7-21.6-3.1-29.6-9-49l-2-6.7c-12.4-45.6-1.5-62.5,22.2-99.3c4.1-6.3,8.6-13.5,13.5-21.3
						l4.6-7.8c40.8-68.1,79.3-132.4,150.1-150.4l3.8-0.8c1.9-0.4,3.8-0.8,5.7-1.2v-3.7c-2.2,0.4-4.2,1-6.4,1.4l-4,0.8
						c-72.4,18.4-111.2,83.4-152.4,152l-4.6,7.8c-4.8,7.8-9.4,15-13.5,21.3c-23.6,36.7-35.5,55-22.7,102.2l2,6.8
						c6,19.6,8.2,27,8.9,48c-0.4,18.8-10.6,143.7-23.3,194.7C1401.8,679.8,1372.7,689.1,1283.9,707.2z"/>
					<path class="st7" d="M646.1,821.3c-10.5-8.5-18.7-13-27.3-17.6c-6.3-3.4-12.7-7-20.7-12.3c-24.3-17.2-23.3-42.6-22-74.8
						c1.4-34.5,3-73.7-27.7-112.4c-14.7-17.3-24.7-26.2-35.3-35.6c-7.5-6.7-15.3-13.5-24.8-23.6c-25.9-30.8-17.1-58.5-4.8-97
						c11.5-35.9,25.7-80.5,12.4-140.9c-3-12.3-7-23.7-10.8-34.8c-14.7-43.1-26.3-77.1,31.5-116.3c48-29.9,87.9-42.7,123.8-42.7
						c49.8,0,92,25.1,137.5,64.4c24.6,22,42.2,39.6,56.4,53.6c29.5,29.3,44.2,44.2,75.3,53.1c0.1,0,0.3,0.1,0.4,0.1
						c8.9,1.4,20.3,2,30.3-4.1c25.1-15.4,16.1-53.4,10.6-76.1l-0.4-1.9c-6.4-26.9-13-54.8-0.5-80.2c3.5-7.4,10.2-15.6,21.4-12.7
						c12.6,3.1,22.1,13.6,31.2,23.7l3.1,3.5c9.1,9.8,19.1,19,28.8,27.7c2.3,2.2,4.8,4.2,7.1,6.4c1.9,1.8,4,3.5,5.9,5.5
						c9.3,8.6,18.8,17.5,29.9,24.7c16.8,10.9,30.4,10.9,38.6-0.1c14.5-19.6,8.7-47.8,5.7-58.9c-4.9-17.5-14.1-35.2-26.6-51.4
						c-11.3-14.6-24.3-25.9-38.6-34c-15-7.2-27.4-11.9-37.4-15.6c-42.8-16-49.4-18.4-77.6-156.4c-2.9-18-4-26.3-4-52.9
						c0.3-19.2,0.3-35.9,0.4-50.5c0-4.6,0-9.1,0-13.5h-7.2c0,4.4,0,8.7,0,13.5c0,14.6,0,31.1-0.4,50.3c0,27.2,1.1,35.7,4.1,54.3
						c29.2,142,37.2,145,82.3,161.8c10.4,3.8,22.1,8.2,36.6,15.3c13.4,7.5,25.5,18.3,36.2,32.1c12,15.4,20.7,32.3,25.4,48.8
						c2.9,10.1,8.1,35.6-4.5,52.8c-5.7,7.8-15.4,7.2-28.8-1.6c-10.5-6.8-19.4-15.1-28.9-23.9c-1.9-1.8-4-3.7-5.9-5.5
						c-2.3-2.2-4.8-4.4-7.1-6.4c-9.6-8.6-19.5-17.6-28.4-27.3l-3.1-3.4c-9.4-10.4-20.1-22.2-34.8-25.9c-12.1-3.1-22.9,2.9-29.6,16.5
						c-13.5,27.7-6.7,56.8,0.1,85l0.4,1.8c4.9,20.7,13.2,55.7-7.4,68.2c-7.9,4.9-17.6,4.2-25.2,3.1c-29.2-8.3-43.5-22.7-72-51.2
						c-14.2-14.2-31.9-31.9-56.6-54c-81-70-151.2-96.1-269.9-22.4c-62.5,42.3-49.5,80.4-34.4,124.6c3.7,10.9,7.6,22.2,10.5,34.1
						c12.8,58.5-0.4,100.3-12.1,137.1c-12,37.5-22.4,70,6.3,104c10,10.5,17.7,17.5,25.4,24.3c10.4,9.3,20.2,17.9,34.5,34.8
						c28.9,36.6,27.4,74.4,26.1,107.7c-1.2,31.7-2.5,61.7,25.1,81c8.5,5.6,15,9.3,21.4,12.7c8.6,4.8,16.1,8.9,26.1,16.8
						c6.8,5.9,12.7,12.1,17.5,18.6h8.9C662,837,654.8,828.9,646.1,821.3z"/>
					<path class="st7" d="M753.6,833.6c-22.6-45.7-41.9-64-57.4-78.6c-13.9-13.2-25-23.6-33.6-48.6c-4.9-17.6-5.5-31.9-5.9-45.7
						c-0.8-25.4-1.6-49.3-29.9-87.5c-7-9-13.2-16.6-18.8-23.5c-34.7-42.4-41.9-51.3-32.7-128.5c10.8-80.9,29.6-92.5,80-123.6
						l8.7-5.3c70.8-42.4,94.4-28.9,149.1,24c61.1,58.3,135.2,87.1,200.6,112.4c24.7,9.6,48,18.6,69.9,28.8l13.9,6.4
						c73.9,34.2,137.8,63.9,176.7,45c16.2-7.9,27-23.6,32.9-48.2c2.7-18,2.5-25.7,0.1-44.3c-8.3-45.8-24.2-71.2-40.9-98
						c-19.4-31-39.3-63-50.2-130.3c-11.3-72.2-13.9-82.7-16.1-91.8c-1.6-6.7-3-12.4-7.6-41.8c-9.4-68.2-31-89.8-51.8-110.7
						c-23.2-23.1-47.1-46.9-55.9-135.8c-1-17.2-0.7-29.7,2.6-40.8h-3.8c-3.1,11.2-3.4,23.9-2.5,41.1c9,90.2,33.4,114.5,57,138.1
						c21.4,21.3,41.6,41.5,50.9,108.6c4.6,29.5,6.1,35.3,7.8,42.2c2.2,9.1,4.8,19.5,16.1,91.6c11,68.1,31.2,100.4,50.8,131.7
						c16.5,26.5,32.2,51.6,40.4,96.6c2.3,18.6,2.6,25.5-0.1,43.1c-5.6,23.3-15.7,38.2-31,45.6c-37.4,18.1-100.6-11.2-173.7-45
						l-13.9-6.4c-22-10.2-45.3-19.2-70.1-28.9c-65.1-25.2-138.9-53.9-199.3-111.6c-55-53.4-80.8-68.1-153.5-24.6l-8.7,5.3
						c-50.1,30.8-70.7,43.7-81.7,126.2c-9.3,78.7-1.1,88.8,33.6,131.3c5.6,6.8,11.7,14.5,18.7,23.3c27.6,37.2,28.2,60.6,29.2,85.4
						c0.5,14.1,1,28.7,6.1,46.7c8.9,25.9,20.2,36.6,34.5,50.1c15.3,14.5,34.4,32.5,56.6,77.6c1.8,3.5,3.4,6.8,5,10.1h4
						C757.4,841.6,755.5,837.7,753.6,833.6z"/>
					<path class="st7" d="M1138.9,366.7c6.1,4.8,14.2,8.7,21.6,8.7c3.1,0,6.3-0.7,9-2.5c8.1-5,9.1-16.1,6.5-24.8
						c-5-17.6-18.6-38.2-37.1-44.2c-7.1-2.3-13.8-1.2-18.7,3c-5.3,4.5-7.6,12-6.4,20.1C1116.2,341.7,1125.4,356.2,1138.9,366.7z
						 M1125,312.4c1.9-1.6,4.2-2.5,6.8-2.5c1.5,0,3.1,0.3,4.9,0.8c16.1,5.2,27.8,23.5,32.3,39.3c1.8,6,1.4,13.6-3.6,16.8
						c-6.1,3.8-15.8-0.8-22.4-5.9c-12.1-9.4-20.2-22.2-22.2-35.1C1120.2,320.3,1121.7,315.2,1125,312.4z"/>
					<path class="st7" d="M1327.1,563.4c-36.6,29.7-70.4,20.2-103,10.9c-17.6-5-35.9-10.1-54.6-9.1c-12.7,1.8-19,2.6-37.9,10.9
						c-40.8,15.7-51.4,7-108.9-49.1c-28.5-27.8-37.4-36-72.7-58c-12.4-7.5-25-15.3-37.1-22.8c-33.7-20.9-68.6-42.6-104.2-61.4
						c-28.8-15.3-59.2-22.9-85.6-21.7c-31.8,1.5-57.6,16-74.5,42c-32.1,62.9-3,106.8,25,149.3c2,3.1,4.1,6.1,6.1,9.3
						c22.5,36.4,24.8,51,31,90.1l0.7,4.5c7.2,38.3,17.6,51.3,34.5,72.7c16.1,20.3,38.8,48.8,71.6,114.5h2
						c-33.3-66.3-56.1-95.1-72.3-115.6c-17.5-22-27-34-34.2-71.9l-0.7-4.5c-6-38.1-8.6-53.9-31.2-90.7c-2-3.1-4.1-6.3-6.1-9.3
						c-27.7-42-56.5-85.4-25-147.4c19.5-30,48-41.5,78.3-41.5c26.7,0,54.9,8.9,79.3,21.8c35.6,18.8,70.4,40.4,104.1,61.4
						c12.1,7.5,24.7,15.3,37.1,22.8c35.2,21.8,44.1,30,72.5,57.7c58.1,56.8,69,65.6,110.8,49.5c18.8-8.2,25.1-9.1,37.5-10.8
						c18.3-1,36.3,4.1,53.9,9c33.2,9.4,67.4,19.1,104.7-11.3c49.8-46.5,37.7-121,21.6-180.7c-22.1-82.7-26.3-122.4-29.2-148.7
						c-2.9-27.2-4.1-38.3-22-65.6c-4.8-8.9-9.2-16.8-13.4-24.3c-25-44.6-37.4-67-29.6-135.2c4.1-35.5,3-65.8-3.7-92.5
						c-1.2-5-2.9-10.4-4.5-15.4c-3.6-11.1-7.1-22.5-7.1-34.1c0.3-39.6,57-49.1,94.7-55.4c6.8-1.1,13.2-2.2,18.4-3.3
						c19.5-4.1,39.4-7.5,58.7-10.9c17.7-3,36.2-6.1,54.2-10c41.8-9.1,78.2-16.1,110-21.3h-10.9c-29.3,5-62.2,11.5-99.5,19.5
						c-18,3.7-36.3,6.8-54.2,9.8c-19.4,3.3-39.3,6.7-58.8,10.9c-5.2,1.1-11.6,2.2-18.3,3.3c-38.2,6.4-95.9,16.1-96.2,57.2
						c-0.1,11.9,3.6,23.5,7.1,34.7c1.6,5,3.3,10.2,4.5,15.3c6.7,26.9,7.8,56.1,3.6,92c-7.9,68.9,4.6,91.4,29.9,136.3
						c4.2,7.5,8.6,15.4,13.4,24.3c17.7,27,19,38.2,21.8,64.9c2.9,26.3,7.1,66.2,29.2,149C1364,443.8,1376,517.7,1327.1,563.4z"/>
					<path class="st7" d="M-127.8,687.3c-84.2-136.3-61.7-167-12.6-234.1c10.2-14.1,22-29.9,33.8-48.6l3.1-4.9
						C-57.3,326-21,267.8,115.8,261.1l3.8-0.1c62.5-3,100.2-4.8,140.3-110.1c12.6-33.6,28.2-68.5,43.5-102.2
						c35.1-77.5,68.1-150.6,65.8-210.5c-3.1-27-12.1-47.8-23.1-70.7h-4c11.1,23.2,20.3,43.9,23.5,70.8
						C367.9-102.8,335-30,300.2,47.1c-15.3,33.7-31,68.6-43.7,102.3c-39.2,103.2-74,104.8-137,107.8l-3.8,0.1
						C-23.1,264.2-61.7,326-106.4,397.6l-3.1,4.9c-11.9,18.6-23.5,34.4-33.7,48.3c-48.7,66.4-73.1,99.7,12.4,238.2
						c11.1,16.9,21.7,32.6,31.9,47.6c29.5,43.4,53.3,78.5,62.2,108.5h3.7c-8.9-30.8-33-66.4-63-110.5
						C-106.2,719.8-116.8,704.2-127.8,687.3z"/>
					<path class="st7" d="M-169.1-188.8c34.4,55.1,81,79.4,122.3,101c39.4,20.6,73.4,38.3,89.5,77.6c11.7,49.7-23.2,68.6-76.1,97.4
						c-21.7,11.9-46.4,25.2-71.9,43c-37.1,26.5-58.5,50.6-79.1,74.1c-25.2,28.7-51.4,58.4-107.4,92.8
						c-148,89.6-187.6,101-225.1,109.8v7.4c38.6-9.1,77.6-19.5,229-111.1c56.9-35.1,83.4-65.1,109-94.1c21.3-24.2,41.5-47.1,77.9-73
						C-76,118.6-51.6,105.2-30,93.5C23.9,64.2,62.8,43,49.5-12.2c0-0.1-0.1-0.1-0.1-0.3c0-0.1,0-0.1,0-0.3
						C32.3-54.7-4.5-73.9-43.5-94.4c-40.4-21.1-86.1-45-119.4-98.2c-7.9-13.9-13.8-27.3-18.3-40.1h-7.6
						C-184.1-218.7-177.7-204.1-169.1-188.8z"/>
					<path class="st7" d="M420.7-29.6C404.3,22.3,386.8,59.9,370,96.2c-8.5,18.3-16.5,35.5-24.3,54.4
						c-17.9,43.5-32.1,81.5-43.5,111.9c-43.8,116.3-55.5,147.5-119,127.6c-7.4-2.2-14.9-4.6-22.6-7.2
						C101.9,363.8,35.5,342.3-22,412.1c-20.1,26.7-25.7,48.3-31.9,73.4c-3.1,12.1-6.3,24.8-11.5,39.7c-7.6,21.4-8.2,25-9.3,32.9
						l-0.4,2.7c0,0.1,0,0.4,0,0.5c-0.3,39.2,32.3,57.9,77.4,83.6c35.9,20.6,80.5,46.3,122.4,90.9c38.5,41.2,61.9,77.8,70.1,109.3
						h7.4C194,811.9,169.9,773.8,130,731c-42.7-45.4-87.9-71.4-124.2-92.1c-42.8-24.6-73.8-42.4-73.7-77.1l0.4-2.6
						c1.1-7.4,1.6-10.6,9-31.5c5.3-15.3,8.6-28.7,11.6-40.4c6.4-25.4,11.5-45.3,30.7-70.7c54.2-65.9,115.4-46,174.6-26.7
						c7.5,2.5,15.4,5,22.8,7.2c12.4,3.8,22.9,5.9,32.3,5.9c43.7,0,59.9-43,95.5-137.8c11.5-30.4,25.7-68.4,43.5-111.7
						c7.8-18.8,15.8-36,24.2-54.2c16.9-36.6,34.4-74.4,51-126.8c31.4-104.7,34.4-148,24.2-205.1h-7.2
						C455.5-175,452.3-133.9,420.7-29.6z"/>
					<path class="st7" d="M263.6-214c25.9,50.8,38.9,76.3,1,174.6C252-7.9,244.2,8.2,231.4,34.8c-4,8.2-8.5,17.5-13.6,28.4
						C170,164.3,164.4,165.8,110.6,179.5c-24.8,6.3-58.7,15-111.2,36.8c-74,33.6-101,76.7-129.6,122.3c-3.1,5-6.3,10.1-9.6,15.1
						c-21.1,31-43.8,50.3-63.9,67.4c-35.9,30.8-64.4,55.1-56.2,127c4.4,28.1,9,44.2,14.7,64.7c3,10.5,6.4,22.5,10.2,37.7
						c3,11.2,5.5,22.8,7.9,35.1c5.6,26.7,11.9,57,25.9,87.1c5.5,10.4,10.9,19.4,15.8,27.4c10,16.4,18,29.6,20.5,45.2h3.7
						c-2.3-16.5-10.6-30.2-21-47.1c-4.8-7.9-10.4-16.9-15.7-27.2c-13.9-29.6-19.8-58.4-25.7-86.2c-2.6-12.4-5-24-8.1-35.3
						c-3.8-15.3-7.2-27.2-10.2-37.8c-5.7-20.3-10.4-36.4-14.7-64.1c-7.9-69.9,18.6-92.5,55-123.9c20.2-17.3,43-36.8,64.4-68.2
						c3.3-5,6.4-10.2,9.6-15.3c28.4-45.2,55.1-87.9,128-120.9c52.3-21.7,86-30.3,110.7-36.6c54-13.8,61-15.6,109.4-118.2
						c5.2-10.9,9.7-20.2,13.6-28.4c13-26.6,20.7-42.7,33.3-74.5c38.5-100,25.2-125.9-1.1-177.7c-2.7-5.5-5.6-11.1-8.6-16.9h-4
						C257.5-226,260.6-219.9,263.6-214z"/>
					<path class="st7" d="M224.9,745.4c-16.4-27.3-37-50.2-61.1-68.2c-7.6-5.7-16.1-10.6-24.4-15.4c-17.7-10.2-36-21-46.7-39.4
						c-25.2-44.2,12-91.7,46.4-111.3c17.6-10.1,38.2-12.6,53.8-6.7c11.6,4.4,19.9,13.4,24.2,26.1c5.7,16.9,4.5,33.7,3.1,51.6
						c-0.8,10.8-1.6,21.8-0.7,32.9c2.2,27,14.9,53.2,35.6,73.4c7.2,7,15,13.4,22.7,19.5c11.6,9.4,23.6,19.1,33.2,31.1
						c20.7,26.1,28.9,61,25,106.3h3.5c4.1-46.1-4.4-81.7-25.7-108.5c-9.8-12.3-22-22.1-33.7-31.7c-7.5-6.1-15.4-12.4-22.4-19.4
						c-20.2-19.6-32.5-45-34.7-71.2c-0.8-10.8-0.1-21.7,0.7-32.3c1.2-17.5,2.6-35.3-3.4-52.9c-4.6-13.6-13.6-23.5-26.3-28.2
						c-16.5-6.3-38.2-3.7-56.8,7c-35.7,20.3-74.1,69.9-47.8,116.3c11.1,19.4,29.7,30.3,47.9,40.8c8.2,4.8,16.5,9.6,24,15.1
						c23.9,17.7,44.2,40.3,60.3,67.1c17.5,29.2,29.5,62.9,34.9,98h3.7C254.9,809.6,242.6,775.2,224.9,745.4z"/>
					<path class="st7" d="M12.4-140.4c4,2,7.9,4.1,11.9,6.1c103.6,57.6,99.1,103.3,82.4,156.9c-22.4,61.9-50.2,73.1-92.2,90.1
						c-46.9,18.8-111.2,44.8-202.6,156.4c-33.8,40.1-50.1,50.3-85.8,72.9c-26.2,16.5-62.2,39.2-122.7,84.3
						c-26.9,18.3-39.3,22.9-58.1,30c-10,3.7-21.3,7.9-37.4,15.1c-10.2,4.5-18.4,9.7-24.6,15.4v5c6.1-6.4,14.7-12.1,26.1-17.2
						c16-7.1,27.3-11.3,37.3-15c19.1-7.1,31.8-11.9,58.9-30.4c60.4-45.2,96.3-67.7,122.5-84.2c36-22.8,52.5-33.2,86.6-73.7
						C-94.4,160.4-30.7,134.7,15.9,116c41.5-16.6,71.4-28.7,94.4-92.2c16.5-53.5,21.7-102.5-84-161.3c-4-2-7.9-4.1-11.9-6.1
						c-42-21.4-84.5-43.4-107.4-89H-97C-74-185.1-30.3-162.5,12.4-140.4z"/>
					<path class="st7" d="M152.9-227.1C230.3-100,207.1-51,161,46.4l-0.5,1.2c-35.2,72.5-74.4,86.4-124,103.8
						C3.8,163-33.1,176.1-75.9,208.3c-43.5,34.2-65.8,67.1-85.4,96.2c-6.4,9.6-12.6,18.6-19,26.7c-19.4,23.3-36.2,33.4-57.2,46.1
						c-20.1,12.1-43,25.9-74.8,55.1c-83.1,83-66.3,104.9-38.5,141.4c4.6,6,9.4,12.3,14.2,19.4c22,34.9,25.7,70.8,31,196.9
						c1.6,30.7-8.7,45.2-33.6,55.1h4.8c22.6-10.2,32.2-25.1,30.6-55.3c-5.3-126.5-9-162.5-31.2-197.8c-4.8-7.1-9.6-13.4-14.2-19.5
						c-27.3-35.7-43.7-57.2,38.2-139c31.7-29.1,54.4-42.8,74.5-54.9c21.3-12.8,38.1-22.9,57.7-46.7c6.4-8.3,12.6-17.3,19-26.9
						c19.5-28.9,41.8-61.7,85-95.8c42.6-32.1,79.3-45,111.7-56.5c50.1-17.6,89.5-31.5,125-104.8l0.5-1.2
						c46.4-98.1,69.7-147.2-8.2-275.3c-0.8-1.2-1.9-2.6-3-4.1h-2.2C150.5-230.8,151.7-229,152.9-227.1z"/>
					<path class="st7" d="M695.7-215.7c-12.8,8.9-22.8,14.9-31.7,20.2c-25.9,15.6-38.9,23.3-71.5,73.5c-31.9,49.8-53.8,66.3-75,82.1
						c-18.8,14.2-36.6,27.6-58.9,63.2C344.1,206.2,343.4,247,342.3,303.2c-0.4,21.7-0.8,46.4-7.9,82.5
						c-10.8,50.1-24.6,86-35.7,114.6c-20.6,53.3-31.9,82.8,3.8,133c28.2,36.4,49.4,58.9,64.9,75.5c29.5,31.4,37.4,39.7,32.7,78.7
						c-4.1,22.6-9.7,41.1-17.7,57.6h4c7.8-16.5,13.2-34.7,17.3-57c4.9-40.7-4.1-50.2-33.7-81.7c-15.4-16.4-36.6-38.9-64.7-75.2
						c-34.5-48.7-24.2-75.7-3.3-129.6c11.2-28.9,25-64.8,35.9-115.3c7.1-36.6,7.6-61.3,8.1-83.2c1.1-55.7,1.8-95.9,115.7-278.1
						c22-35.1,39.6-48.2,58-62.2c21.4-16.1,43.7-32.9,75.9-83.1c32.2-49.4,44.9-57.2,70.4-72.3c8.9-5.3,19-11.3,31.9-20.3
						c8.9-6.7,16.5-13.4,23.1-19.9h-5.2C709.8-227,703.2-221.4,695.7-215.7z"/>
				</g>
			</g>
			<circle class="st2" cx="1001" cy="384" r="30"/>
		</g>
	</g>
</g>
</svg>
